<svg width="609" height="146" viewBox="0 0 609 146" fill="none" xmlns="http://www.w3.org/2000/svg">
<path fill-rule="evenodd" clip-rule="evenodd" d="M0 53.3942V96.6614C18.9358 106.373 34.286 122.228 43.5019 141.641L47.8016 146H560.592L566.081 140.435C575.354 121.571 590.458 106.171 609 96.6614V53.3942C588.315 42.785 571.908 24.8455 563.103 2.94465L560.198 0H48.1985L46.3013 1.92354C37.9475 23.3937 22.32 41.1485 2.49763 52.0662C1.67229 52.5208 0.839668 52.9635 0 53.3942Z" fill="#3B3C43"/>
<path d="M118.966 76.1122C118.966 81.161 120.47 85.4221 123.478 88.8954C126.485 92.3329 130.138 94.0516 134.435 94.0516C137.657 94.0516 140.593 93.0669 143.243 91.0975C145.929 89.1281 147.773 86.5142 148.775 83.2557C148.954 82.7544 149.223 82.5038 149.581 82.5038C150.19 82.5038 150.494 82.7186 150.494 83.1483C149.671 88.8417 149.205 91.8137 149.098 92.0643C148.919 92.6731 148.507 92.9774 147.862 92.9774H147.809H146.305C145.875 92.9774 145.553 93.0132 145.338 93.0848C145.159 93.1565 144.89 93.3176 144.532 93.5682C144.21 93.8189 143.941 93.9979 143.727 94.1053C140.504 95.9673 137.102 96.8983 133.521 96.8983C130.979 96.8983 128.491 96.397 126.056 95.3944C123.621 94.3918 121.472 92.9953 119.61 91.205C117.748 89.3788 116.28 87.2303 115.206 84.7596C114.168 82.2889 113.648 79.7466 113.648 77.1327C113.648 74.4471 114.203 71.8511 115.313 69.3446C116.424 66.8381 117.91 64.6897 119.771 62.8993C123.71 59.1395 128.383 57.2596 133.79 57.2596H133.844C135.813 57.2596 137.621 57.5103 139.269 58.0116C140.951 58.4771 142.241 58.9605 143.136 59.4618C144.067 59.9631 144.568 60.2137 144.64 60.2137C144.926 60.2137 145.177 59.9094 145.392 59.3007C145.606 58.6919 145.893 58.3339 146.251 58.2264C146.323 58.2264 146.43 58.2264 146.573 58.2264C146.716 58.1906 146.806 58.1727 146.842 58.1727C147.236 58.1727 147.468 58.3876 147.54 58.8173L147.916 61.6102C148.167 63.508 148.417 65.4237 148.668 67.3573C148.919 69.2909 149.044 70.3293 149.044 70.4725C149.044 71.0813 148.668 71.3856 147.916 71.3856C147.236 71.3856 146.842 71.2782 146.734 71.0634C146.627 70.8127 146.502 70.0608 146.358 68.8075C146.179 67.4468 145.696 66.2473 144.908 65.2089C143.655 63.6333 142.062 62.3443 140.128 61.3417C138.194 60.3033 136.046 59.7841 133.683 59.7841C129.708 59.7841 126.253 61.288 123.316 64.2958C120.416 67.3036 118.966 71.2424 118.966 76.1122ZM192.872 77.0253C192.872 82.7186 190.938 87.4631 187.071 91.2587C183.24 95.0184 178.603 96.8983 173.16 96.8983C170.475 96.8983 167.843 96.3791 165.265 95.3407C162.687 94.3023 160.413 92.8342 158.443 90.9364C154.254 86.8902 152.123 81.9667 152.052 76.1659C152.052 70.6158 154.039 65.8713 158.014 61.9325C162.024 57.9579 166.804 55.9706 172.354 55.9706C178.155 55.9706 183.025 58.0474 186.964 62.201C190.903 66.3547 192.872 71.2961 192.872 77.0253ZM157.315 74.4471C157.315 76.882 157.638 79.2274 158.282 81.4833C158.963 83.7391 159.929 85.7802 161.183 87.6063C162.436 89.4325 164.083 90.9006 166.124 92.0106C168.165 93.1206 170.439 93.6757 172.945 93.6757C174.628 93.6757 176.275 93.3892 177.887 92.8163C179.498 92.2434 181.038 91.384 182.506 90.2382C183.974 89.0565 185.156 87.4094 186.051 85.2968C186.982 83.1841 187.447 80.7492 187.447 77.9921C187.447 75.0917 186.946 72.2629 185.943 69.5057C184.977 66.7128 183.455 64.4032 181.378 62.577C178.585 60.1063 175.291 58.871 171.495 58.871C169.741 58.871 168.04 59.1932 166.393 59.8378C164.745 60.4465 163.224 61.3596 161.827 62.577C160.466 63.7587 159.374 65.3879 158.551 67.4647C157.727 69.5057 157.315 71.8332 157.315 74.4471ZM202.164 58.4413C203.346 58.4413 204.438 58.4413 205.44 58.4413C206.443 58.4055 207.231 58.3697 207.804 58.3339C208.377 58.2981 208.717 58.2802 208.824 58.2802C209.218 58.2802 209.469 58.4055 209.576 58.6561C209.684 58.871 209.737 59.229 209.737 59.7303C209.737 60.5897 209.326 61.0194 208.502 61.0194C208.144 61.0194 207.75 61.0373 207.32 61.0731C206.926 61.0731 206.622 61.0731 206.407 61.0731C206.192 61.0731 205.942 61.0731 205.655 61.0731C205.405 61.0731 205.208 61.091 205.064 61.1268C204.921 61.1268 204.778 61.1626 204.635 61.2343C204.492 61.2701 204.384 61.3238 204.312 61.3954C204.241 61.467 204.169 61.5744 204.098 61.7177C204.062 61.8251 204.026 61.9504 203.99 62.0936C203.99 62.2369 203.99 62.4159 203.99 62.6307V90.5067C203.99 91.6884 204.474 92.2792 205.44 92.2792H215.968H216.129C217.49 92.2792 218.492 91.7779 219.137 90.7753C219.316 90.4888 219.71 89.6652 220.318 88.3046C220.963 86.9439 221.339 86.2098 221.446 86.1024C221.661 85.816 221.93 85.6727 222.252 85.6727C222.431 85.6727 222.628 85.7085 222.843 85.7802C223.058 85.816 223.29 85.9413 223.541 86.1561C223.792 86.3352 223.917 86.5858 223.917 86.9081C223.917 87.1945 223.559 89.7906 222.843 94.6962C222.807 94.9468 222.753 95.1438 222.682 95.287C222.646 95.4302 222.503 95.5555 222.252 95.663C222.037 95.8062 221.733 95.8778 221.339 95.8778C221.231 95.8778 220.748 95.8599 219.889 95.8241C219.029 95.8241 217.883 95.8062 216.451 95.7704C215.019 95.7346 213.408 95.6988 211.617 95.663C209.827 95.6272 207.75 95.5913 205.387 95.5555C203.023 95.5555 200.696 95.5555 198.404 95.5555H195.504C194.895 95.5555 194.591 95.2691 194.591 94.6962C194.591 94.2307 194.734 93.9263 195.021 93.7831C195.343 93.604 196.059 93.4071 197.169 93.1923C197.384 93.1565 197.545 93.1206 197.652 93.0848C198.476 92.87 198.888 92.2792 198.888 91.3124V91.1512V62.2548C198.888 62.0399 198.87 61.8788 198.834 61.7714C198.834 61.6281 198.798 61.5028 198.727 61.3954C198.691 61.288 198.619 61.2163 198.512 61.1805C198.44 61.1089 198.351 61.0731 198.243 61.0731C198.136 61.0373 197.993 61.0194 197.813 61.0194C197.67 60.9836 197.491 60.9657 197.276 60.9657C197.097 60.9657 196.882 60.9657 196.632 60.9657C196.381 60.9657 196.113 60.9657 195.826 60.9657C194.895 60.8941 194.43 60.4465 194.43 59.6229C194.43 58.7277 194.788 58.2802 195.504 58.2802C195.647 58.2802 195.969 58.2981 196.471 58.3339C196.972 58.3339 197.688 58.3518 198.619 58.3876C199.586 58.4234 200.624 58.4413 201.734 58.4413H202.164ZM233.102 58.4413C234.283 58.4413 235.375 58.4413 236.378 58.4413C237.381 58.4055 238.168 58.3697 238.741 58.3339C239.314 58.2981 239.654 58.2802 239.762 58.2802C240.156 58.2802 240.406 58.4055 240.514 58.6561C240.621 58.871 240.675 59.229 240.675 59.7303C240.675 60.5897 240.263 61.0194 239.439 61.0194C239.081 61.0194 238.688 61.0373 238.258 61.0731C237.864 61.0731 237.56 61.0731 237.345 61.0731C237.13 61.0731 236.879 61.0731 236.593 61.0731C236.342 61.0731 236.145 61.091 236.002 61.1268C235.859 61.1268 235.715 61.1626 235.572 61.2343C235.429 61.2701 235.322 61.3238 235.25 61.3954C235.178 61.467 235.107 61.5744 235.035 61.7177C234.999 61.8251 234.964 61.9504 234.928 62.0936C234.928 62.2369 234.928 62.4159 234.928 62.6307V90.5067C234.928 91.6884 235.411 92.2792 236.378 92.2792H246.905H247.066C248.427 92.2792 249.43 91.7779 250.074 90.7753C250.253 90.4888 250.647 89.6652 251.256 88.3046C251.9 86.9439 252.276 86.2098 252.384 86.1024C252.599 85.816 252.867 85.6727 253.189 85.6727C253.368 85.6727 253.565 85.7085 253.78 85.7802C253.995 85.816 254.228 85.9413 254.479 86.1561C254.729 86.3352 254.854 86.5858 254.854 86.9081C254.854 87.1945 254.496 89.7906 253.78 94.6962C253.744 94.9468 253.691 95.1438 253.619 95.287C253.583 95.4302 253.44 95.5555 253.189 95.663C252.975 95.8062 252.67 95.8778 252.276 95.8778C252.169 95.8778 251.686 95.8599 250.826 95.8241C249.967 95.8241 248.821 95.8062 247.389 95.7704C245.956 95.7346 244.345 95.6988 242.555 95.663C240.764 95.6272 238.688 95.5913 236.324 95.5555C233.961 95.5555 231.633 95.5555 229.342 95.5555H226.441C225.833 95.5555 225.528 95.2691 225.528 94.6962C225.528 94.2307 225.672 93.9263 225.958 93.7831C226.28 93.604 226.996 93.4071 228.106 93.1923C228.321 93.1565 228.482 93.1206 228.59 93.0848C229.413 92.87 229.825 92.2792 229.825 91.3124V91.1512V62.2548C229.825 62.0399 229.807 61.8788 229.771 61.7714C229.771 61.6281 229.736 61.5028 229.664 61.3954C229.628 61.288 229.557 61.2163 229.449 61.1805C229.378 61.1089 229.288 61.0731 229.181 61.0731C229.073 61.0373 228.93 61.0194 228.751 61.0194C228.608 60.9836 228.429 60.9657 228.214 60.9657C228.035 60.9657 227.82 60.9657 227.569 60.9657C227.319 60.9657 227.05 60.9657 226.764 60.9657C225.833 60.8941 225.367 60.4465 225.367 59.6229C225.367 58.7277 225.725 58.2802 226.441 58.2802C226.585 58.2802 226.907 58.2981 227.408 58.3339C227.91 58.3339 228.626 58.3518 229.557 58.3876C230.523 58.4234 231.562 58.4413 232.672 58.4413H233.102ZM279.669 67.3573C280.707 67.3573 281.227 67.8765 281.227 68.9149V79.0663C281.227 80.1047 280.707 80.6239 279.669 80.6239C278.702 80.6239 278.219 80.23 278.219 79.4423V76.4882C278.219 75.6646 277.735 75.2528 276.769 75.2528H269.195C268.801 75.2528 268.479 75.2707 268.229 75.3065C267.978 75.3423 267.691 75.4318 267.369 75.5751C267.083 75.6825 266.868 75.8973 266.725 76.2196C266.581 76.5419 266.51 76.9537 266.51 77.455V90.077C266.51 90.4709 266.528 90.7932 266.563 91.0438C266.635 91.2587 266.796 91.4914 267.047 91.7421C267.333 91.9569 267.727 92.1001 268.229 92.1718C269.84 92.4224 271.559 92.5477 273.385 92.5477C274.602 92.5477 276.106 92.4403 277.896 92.2255C279.687 92.0106 280.815 91.7242 281.28 91.3661C281.603 91.1154 282.247 90.1307 283.214 88.412C284.181 86.6574 284.807 85.6906 285.094 85.5116C285.309 85.4042 285.488 85.3505 285.631 85.3505C285.882 85.3505 286.096 85.4579 286.275 85.6727C286.49 85.8876 286.598 86.1919 286.598 86.5858V86.6395C286.598 86.9618 286.043 89.5757 284.933 94.4813C284.861 94.911 284.7 95.1975 284.449 95.3407C284.234 95.4839 283.84 95.5555 283.268 95.5555H264.361C262.714 95.5555 261.174 95.663 259.742 95.8778C258.346 96.0927 257.612 96.2001 257.54 96.2001C257.11 96.2001 256.77 95.9852 256.52 95.5555C256.305 95.1617 256.197 94.8394 256.197 94.5887C256.197 94.1949 256.34 93.9084 256.627 93.7294C256.913 93.5503 257.63 93.246 258.775 92.8163C259.42 92.5656 259.957 92.3687 260.387 92.2255C261.21 91.939 261.622 91.2229 261.622 90.077V61.3954C261.622 61.0015 261.533 60.7509 261.354 60.6434C261.174 60.536 260.763 60.4286 260.118 60.3212C259.796 60.2854 259.402 60.2496 258.937 60.2137C258.471 60.1779 258.113 60.1421 257.862 60.1063C257.647 60.0705 257.415 60.0168 257.164 59.9452C256.913 59.8378 256.734 59.6945 256.627 59.5155C256.52 59.3365 256.466 59.0858 256.466 58.7635C256.466 57.94 256.824 57.5282 257.54 57.5282H282.838C283.447 57.5282 283.84 57.8326 284.02 58.4413C284.163 59.1216 284.36 60.0705 284.61 61.288C284.897 62.5054 285.13 63.5438 285.309 64.4032C285.523 65.2268 285.631 65.6744 285.631 65.746C285.631 66.2831 285.255 66.5516 284.503 66.5516C283.93 66.5516 283.411 66.2294 282.945 65.5848C281.334 62.7561 280.421 61.2163 280.206 60.9657C279.884 60.6434 279.365 60.4823 278.648 60.4823H268.282C267.566 60.4823 267.101 60.6613 266.886 61.0194C266.707 61.3775 266.617 61.8967 266.617 62.577V70.8485C266.617 71.6721 266.975 72.0839 267.691 72.0839H276.124C276.518 72.0839 276.84 72.066 277.091 72.0302C277.341 71.9585 277.592 71.7795 277.843 71.493C278.093 71.2066 278.219 70.7948 278.219 70.2577V68.5389C278.219 67.7512 278.702 67.3573 279.669 67.3573ZM293.795 76.1122C293.795 81.161 295.299 85.4221 298.307 88.8954C301.314 92.3329 304.967 94.0516 309.264 94.0516C312.486 94.0516 315.423 93.0669 318.072 91.0975C320.758 89.1281 322.602 86.5142 323.604 83.2557C323.784 82.7544 324.052 82.5038 324.41 82.5038C325.019 82.5038 325.323 82.7186 325.323 83.1483C324.5 88.8417 324.034 91.8137 323.927 92.0643C323.748 92.6731 323.336 92.9774 322.691 92.9774H322.638H321.134C320.704 92.9774 320.382 93.0132 320.167 93.0848C319.988 93.1565 319.719 93.3176 319.361 93.5682C319.039 93.8189 318.771 93.9979 318.556 94.1053C315.333 95.9673 311.931 96.8983 308.351 96.8983C305.808 96.8983 303.32 96.397 300.885 95.3944C298.45 94.3918 296.301 92.9953 294.439 91.205C292.577 89.3788 291.109 87.2303 290.035 84.7596C288.997 82.2889 288.478 79.7466 288.478 77.1327C288.478 74.4471 289.033 71.8511 290.143 69.3446C291.253 66.8381 292.739 64.6897 294.601 62.8993C298.539 59.1395 303.212 57.2596 308.619 57.2596H308.673C310.642 57.2596 312.451 57.5103 314.098 58.0116C315.781 58.4771 317.07 58.9605 317.965 59.4618C318.896 59.9631 319.397 60.2137 319.469 60.2137C319.755 60.2137 320.006 59.9094 320.221 59.3007C320.436 58.6919 320.722 58.3339 321.08 58.2264C321.152 58.2264 321.259 58.2264 321.402 58.2264C321.546 58.1906 321.635 58.1727 321.671 58.1727C322.065 58.1727 322.298 58.3876 322.369 58.8173L322.745 61.6102C322.996 63.508 323.246 65.4237 323.497 67.3573C323.748 69.2909 323.873 70.3293 323.873 70.4725C323.873 71.0813 323.497 71.3856 322.745 71.3856C322.065 71.3856 321.671 71.2782 321.563 71.0634C321.456 70.8127 321.331 70.0608 321.188 68.8075C321.008 67.4468 320.525 66.2473 319.737 65.2089C318.484 63.6333 316.891 62.3443 314.957 61.3417C313.023 60.3033 310.875 59.7841 308.512 59.7841C304.537 59.7841 301.082 61.288 298.146 64.2958C295.245 67.3036 293.795 71.2424 293.795 76.1122ZM353.092 95.8778L352.018 95.7704C351.337 95.7346 350.388 95.6809 349.171 95.6093C347.989 95.5734 346.808 95.5555 345.626 95.5555C344.874 95.5555 344.104 95.5555 343.316 95.5555C342.564 95.5913 341.884 95.6272 341.275 95.663C340.702 95.6988 340.183 95.7346 339.718 95.7704C339.252 95.8062 338.876 95.8241 338.59 95.8241C338.303 95.8599 338.142 95.8778 338.106 95.8778C337.39 95.8778 337.032 95.4123 337.032 94.4813C337.032 93.9084 337.175 93.5503 337.462 93.4071C337.784 93.2639 338.5 93.1565 339.61 93.0848C340.219 93.049 340.702 93.0132 341.061 92.9774C341.812 92.9058 342.296 92.7089 342.511 92.3866C342.761 92.0643 342.887 91.5809 342.887 90.9364V63.0604C342.887 62.7024 342.869 62.4338 342.833 62.2548C342.797 62.0757 342.654 61.8788 342.403 61.6639C342.188 61.4491 341.866 61.3417 341.437 61.3417H333.219C332.538 61.3417 332.073 61.4312 331.822 61.6102C331.572 61.7535 331.339 62.0399 331.124 62.4696C329.62 65.4416 328.814 66.9992 328.707 67.1425C328.456 67.4289 328.152 67.5721 327.794 67.5721C327.436 67.5721 327.132 67.4468 326.881 67.1962C326.666 66.9097 326.559 66.5695 326.559 66.1757V66.1219C326.559 65.9787 327.096 63.4543 328.17 58.5487C328.277 57.9758 328.653 57.6893 329.298 57.6893H361.363C361.972 57.6893 362.348 58.119 362.491 58.9784C363.386 63.6333 363.834 65.9787 363.834 66.0145C363.834 66.3368 363.727 66.6233 363.512 66.8739C363.297 67.1246 363.046 67.2499 362.76 67.2499C362.33 67.2499 361.918 66.8918 361.524 66.1757C361.31 65.8176 361.077 65.4237 360.826 64.994C360.576 64.5285 360.379 64.1884 360.235 63.9735C360.128 63.7229 359.985 63.4543 359.806 63.1678C359.662 62.8456 359.537 62.6307 359.43 62.5233C359.322 62.3801 359.215 62.2369 359.107 62.0936C359 61.9146 358.893 61.8072 358.785 61.7714C358.714 61.6997 358.624 61.6281 358.517 61.5565C358.409 61.4849 358.284 61.4491 358.141 61.4491C358.033 61.4133 357.908 61.3954 357.765 61.3954C357.657 61.3596 357.514 61.3417 357.335 61.3417H349.225C348.867 61.3417 348.58 61.4312 348.365 61.6102C348.186 61.7893 348.079 61.9683 348.043 62.1473C348.043 62.2906 348.043 62.5233 348.043 62.8456V91.6346C348.043 92.2076 348.204 92.5656 348.526 92.7089C348.884 92.8521 349.798 92.9774 351.266 93.0848C352.018 93.1565 352.608 93.2102 353.038 93.246C353.432 93.2818 353.683 93.4071 353.79 93.6219C353.933 93.8368 354.005 94.2307 354.005 94.8036C354.005 95.5197 353.701 95.8778 353.092 95.8778ZM366.788 58.1727L367.701 58.2264C368.31 58.2622 369.116 58.316 370.118 58.3876C371.121 58.4234 372.123 58.4413 373.126 58.4413C374.164 58.4413 375.113 58.4234 375.973 58.3876C376.832 58.3518 377.494 58.316 377.96 58.2802C378.461 58.2443 378.766 58.2264 378.873 58.2264C379.482 58.2264 379.786 58.5666 379.786 59.2469C379.786 59.426 379.768 59.5871 379.732 59.7303C379.732 59.8378 379.715 59.9452 379.679 60.0526C379.679 60.16 379.643 60.2496 379.571 60.3212C379.5 60.3928 379.428 60.4644 379.356 60.536C379.321 60.5718 379.231 60.6076 379.088 60.6434C378.945 60.6792 378.819 60.715 378.712 60.7509C378.64 60.7867 378.497 60.8225 378.282 60.8583C378.067 60.8583 377.888 60.8762 377.745 60.912C377.602 60.912 377.369 60.9299 377.047 60.9657C376.76 60.9657 376.51 60.9836 376.295 61.0194C375.722 61.0552 375.436 61.3596 375.436 61.9325V91.6346C375.436 92.494 375.758 92.9595 376.402 93.0311C376.76 93.0669 377.154 93.1027 377.584 93.1385C378.014 93.1385 378.354 93.1385 378.604 93.1385C378.855 93.1385 379.106 93.1565 379.356 93.1923C379.643 93.2281 379.858 93.2639 380.001 93.2997C380.144 93.3355 380.27 93.3892 380.377 93.4608C380.52 93.5324 380.61 93.6399 380.646 93.7831C380.717 93.9263 380.753 94.0874 380.753 94.2665C380.753 95.3407 380.395 95.8778 379.679 95.8778C379.643 95.8778 379.5 95.8599 379.249 95.8241C378.998 95.8241 378.64 95.8062 378.175 95.7704C377.745 95.7346 377.262 95.6988 376.725 95.663C376.188 95.6272 375.561 95.5913 374.845 95.5555C374.129 95.5555 373.412 95.5555 372.696 95.5555C371.98 95.5555 371.264 95.5555 370.548 95.5555C369.832 95.5913 369.187 95.6272 368.614 95.663C368.077 95.6988 367.594 95.7346 367.164 95.7704C366.734 95.8062 366.376 95.8241 366.09 95.8241C365.839 95.8599 365.696 95.8778 365.66 95.8778C365.087 95.8778 364.765 95.466 364.693 94.6425C364.658 94.535 364.64 94.356 364.64 94.1053C364.64 93.6757 364.783 93.4071 365.069 93.2997C365.392 93.1923 366.126 93.1027 367.271 93.0311C368.059 92.9953 368.722 92.9595 369.259 92.9237C370.047 92.8879 370.44 92.3687 370.44 91.3661V62.7919C370.44 62.6844 370.44 62.5412 370.44 62.3622C370.476 62.1473 370.494 62.022 370.494 61.9862C370.494 61.5207 370.351 61.2343 370.064 61.1268C369.778 61.0194 369.133 60.9478 368.131 60.912C367.594 60.912 367.164 60.8941 366.842 60.8583C366.018 60.7867 365.606 60.3928 365.606 59.6766C365.606 58.674 366 58.1727 366.788 58.1727ZM423.453 77.0253C423.453 82.7186 421.52 87.4631 417.652 91.2587C413.821 95.0184 409.184 96.8983 403.741 96.8983C401.056 96.8983 398.424 96.3791 395.846 95.3407C393.268 94.3023 390.994 92.8342 389.024 90.9364C384.835 86.8902 382.704 81.9667 382.633 76.1659C382.633 70.6158 384.62 65.8713 388.595 61.9325C392.605 57.9579 397.385 55.9706 402.936 55.9706C408.736 55.9706 413.606 58.0474 417.545 62.201C421.484 66.3547 423.453 71.2961 423.453 77.0253ZM387.896 74.4471C387.896 76.882 388.219 79.2274 388.863 81.4833C389.544 83.7391 390.51 85.7802 391.764 87.6063C393.017 89.4325 394.664 90.9006 396.705 92.0106C398.746 93.1206 401.02 93.6757 403.526 93.6757C405.209 93.6757 406.856 93.3892 408.468 92.8163C410.079 92.2434 411.619 91.384 413.087 90.2382C414.555 89.0565 415.737 87.4094 416.632 85.2968C417.563 83.1841 418.028 80.7492 418.028 77.9921C418.028 75.0917 417.527 72.2629 416.524 69.5057C415.558 66.7128 414.036 64.4032 411.959 62.577C409.166 60.1063 405.872 58.871 402.076 58.871C400.322 58.871 398.621 59.1932 396.974 59.8378C395.326 60.4465 393.805 61.3596 392.408 62.577C391.048 63.7587 389.955 65.3879 389.132 67.4647C388.308 69.5057 387.896 71.8332 387.896 74.4471ZM432.638 65.746V65.5311C432.638 65.0298 432.029 64.2242 430.812 63.1141C429.379 61.6818 427.75 60.8941 425.924 60.7509C425.243 60.7509 424.903 60.3391 424.903 59.5155C424.903 58.5845 425.315 58.119 426.139 58.119H432.906C433.801 58.119 434.535 58.4592 435.108 59.1395L443.702 69.1298L448.751 74.7694C455.483 82.0741 458.992 85.816 459.278 85.995C459.35 86.0666 459.422 86.1024 459.493 86.1024C459.744 86.1024 459.869 85.9234 459.869 85.5653C459.869 85.1356 459.887 84.5269 459.923 83.7391C459.959 82.9156 459.977 82.1815 459.977 81.537C460.012 80.8566 460.03 80.23 460.03 79.6571C460.03 74.7157 459.851 69.2551 459.493 63.2753C459.457 62.201 459.207 61.5207 458.741 61.2343C458.276 60.9478 457.345 60.733 455.948 60.5897C455.125 60.4823 454.713 60.0884 454.713 59.4081C454.713 59.0858 454.838 58.7994 455.089 58.5487C455.34 58.2622 455.751 58.119 456.324 58.119C456.396 58.119 456.646 58.1369 457.076 58.1727C457.542 58.1727 458.168 58.1906 458.956 58.2264C459.78 58.2622 460.657 58.2802 461.588 58.2802C462.519 58.2802 463.36 58.2622 464.112 58.2264C464.9 58.1906 465.509 58.1727 465.938 58.1727C466.404 58.1369 466.673 58.119 466.744 58.119C467.532 58.119 467.926 58.5308 467.926 59.3544C467.926 59.6408 467.89 59.8736 467.818 60.0526C467.747 60.2316 467.604 60.3749 467.389 60.4823C467.174 60.5539 466.995 60.6076 466.852 60.6434C466.744 60.6434 466.511 60.6613 466.153 60.6971C465.795 60.6971 465.545 60.6971 465.401 60.6971C464.47 60.7688 463.826 61.0552 463.468 61.5565C463.146 62.0578 462.966 63.0425 462.931 64.5106C462.787 70.7411 462.716 75.5035 462.716 78.7977C462.716 81.5191 462.734 84.0435 462.77 86.371C462.805 88.6984 462.841 90.5246 462.877 91.8495C462.913 93.1385 462.931 93.9263 462.931 94.2128C462.931 95.9673 462.555 96.8446 461.803 96.8446C461.373 96.8446 460.478 96.0747 459.117 94.535L447.73 81.537C439.674 72.5852 435.61 68.1093 435.538 68.1093L435.323 68.3241C434.822 75.8436 434.571 82.3606 434.571 87.8749V89.4325C434.571 90.9006 434.715 91.8495 435.001 92.2792C435.287 92.7089 435.986 92.9595 437.096 93.0311C438.456 93.0311 439.566 93.1565 440.426 93.4071C440.891 93.6219 441.124 94.1053 441.124 94.8573C441.124 95.5376 440.82 95.8778 440.211 95.8778C440.175 95.8778 440.032 95.8599 439.781 95.8241C439.531 95.8241 439.19 95.8062 438.761 95.7704C438.367 95.7346 437.901 95.6988 437.364 95.663C436.827 95.6272 436.218 95.5913 435.538 95.5555C434.858 95.5555 434.177 95.5555 433.497 95.5555C432.423 95.5555 431.349 95.5734 430.274 95.6093C429.2 95.6809 428.341 95.7346 427.696 95.7704L426.729 95.8778C425.978 95.8778 425.602 95.5197 425.602 94.8036C425.602 94.0158 425.87 93.5324 426.407 93.3534C426.622 93.2818 427.105 93.2281 427.857 93.1923C428.645 93.1206 429.308 92.9774 429.845 92.7626C430.418 92.5119 430.829 92.118 431.08 91.5809C431.223 91.2229 431.563 86.0845 432.101 76.1659C432.315 71.9406 432.494 68.4673 432.638 65.746ZM470.128 67.1962C470.128 64.6897 471.059 62.5233 472.921 60.6971C474.783 58.8352 477.128 57.9042 479.957 57.9042C481.282 57.9042 482.464 58.1011 483.502 58.495C484.576 58.8531 485.4 59.2111 485.973 59.5692C486.581 59.9273 486.939 60.1063 487.047 60.1063C487.262 60.1063 487.566 59.7483 487.96 59.0321C488.39 58.2802 488.855 57.9042 489.356 57.9042C489.607 57.9042 489.822 58.0116 490.001 58.2264C490.18 58.4055 490.27 58.6382 490.27 58.9247C490.27 58.9963 490.252 59.229 490.216 59.6229C490.18 60.0168 490.126 60.5718 490.055 61.288C490.019 61.9683 490.001 62.7024 490.001 63.4901C490.001 64.2779 490.019 65.0119 490.055 65.6923C490.126 66.3726 490.18 66.9097 490.216 67.3036C490.252 67.6617 490.27 67.8765 490.27 67.9481C490.27 68.4852 489.947 68.7538 489.303 68.7538H489.249C488.748 68.7538 488.372 68.5747 488.121 68.2167C487.87 67.8228 487.53 67.1783 487.101 66.2831C486.707 65.3879 486.152 64.5285 485.436 63.705C483.609 61.6639 481.604 60.6434 479.42 60.6434C477.916 60.6434 476.645 61.1447 475.606 62.1473C474.568 63.1499 474.049 64.3674 474.049 65.7997C474.049 67.7691 474.998 69.4341 476.896 70.7948C478.006 71.6184 479.814 72.3345 482.32 72.9432C484.827 73.552 486.492 74.0354 487.315 74.3934C489.392 75.2886 491.057 76.6314 492.311 78.4218C493.6 80.1763 494.244 82.2531 494.244 84.6522C494.244 87.9465 493.08 90.7395 490.753 93.0311C488.425 95.3228 485.579 96.4686 482.213 96.4686C478.919 96.4686 476.126 95.466 473.834 93.4608C473.261 92.9595 472.706 92.7089 472.169 92.7089C471.99 92.7089 471.739 92.7447 471.417 92.8163C471.095 92.8521 470.862 92.87 470.719 92.87C470.074 92.87 469.752 92.5835 469.752 92.0106C469.752 91.9032 469.806 91.5451 469.913 90.9364C470.056 90.3277 470.235 89.3251 470.45 87.9286C470.665 86.5321 470.844 84.9208 470.987 83.0946C471.059 82.3068 471.471 81.913 472.223 81.913C472.796 81.913 473.136 82.0741 473.243 82.3964C473.386 82.7186 473.548 83.6138 473.727 85.0819C473.762 85.5474 473.798 85.995 473.834 86.4247C473.87 86.8544 473.888 87.1587 473.888 87.3378C473.924 87.5168 473.941 87.6779 473.941 87.8212C473.941 87.9644 473.977 88.1076 474.049 88.2509C474.12 88.3583 474.174 88.4478 474.21 88.5194C474.246 88.591 474.371 88.7701 474.586 89.0565C474.801 89.3072 474.998 89.5399 475.177 89.7548C477.003 92.1897 479.366 93.4071 482.267 93.4071C484.451 93.4071 486.331 92.6731 487.906 91.205C489.482 89.7369 490.27 87.9286 490.27 85.7802C490.27 83.3094 489.195 81.2863 487.047 79.7108C485.829 78.8156 483.985 78.0816 481.515 77.5087C479.044 76.8999 477.433 76.4344 476.681 76.1122C474.532 75.2528 472.903 74.0354 471.793 72.4598C470.683 70.8485 470.128 69.094 470.128 67.1962Z" fill="#B29142"/>
<path fill-rule="evenodd" clip-rule="evenodd" d="M0 53.3942V96.6614C18.9358 106.373 34.286 122.228 43.5019 141.641L47.8016 146H560.592L566.081 140.435C575.354 121.571 590.458 106.171 609 96.6614V53.3942C588.315 42.785 571.908 24.8455 563.103 2.94465L560.198 0H48.1985L46.3013 1.92354C37.9475 23.3937 22.32 41.1485 2.49763 52.0662C1.67229 52.5208 0.839668 52.9635 0 53.3942Z" fill="#121948"/>
<path d="M259.137 93.5137C253.284 93.5137 248.198 91.2331 243.879 86.6719C239.56 82.0703 237.4 76.5404 237.4 70.082C237.4 63.8659 239.419 58.679 243.455 54.5215C247.532 50.3236 252.456 48.2246 258.229 48.2246C259.924 48.2246 261.579 48.4264 263.193 48.8301C264.808 49.2337 266.079 49.6777 267.008 50.1621C267.977 50.6465 268.824 51.1309 269.551 51.6152C270.318 52.0592 270.742 52.2812 270.822 52.2812H271.064C271.508 52.2812 272.033 51.8978 272.639 51.1309C273.285 50.3236 273.668 49.8997 273.789 49.8594C273.991 49.7383 274.253 49.6777 274.576 49.6777C275.141 49.6777 275.424 49.9603 275.424 50.5254V52.2207C275.424 53.3913 275.444 54.582 275.484 55.793C275.525 57.0039 275.585 58.0534 275.666 58.9414C275.747 59.8294 275.807 60.6367 275.848 61.3633C275.928 62.0495 275.989 62.5944 276.029 62.998C276.07 63.4017 276.09 63.6237 276.09 63.6641C276.09 64.3099 275.505 64.6328 274.334 64.6328C273.769 64.6328 273.426 64.4512 273.305 64.0879C273.184 63.6842 272.962 62.9375 272.639 61.8477C272.356 60.7174 271.791 59.5671 270.943 58.3965C269.369 56.2572 267.391 54.5215 265.01 53.1895C262.628 51.8574 260.126 51.1914 257.502 51.1914C255.847 51.1914 254.232 51.5143 252.658 52.1602C251.124 52.806 249.651 53.7949 248.238 55.127C246.866 56.459 245.756 58.3561 244.908 60.8184C244.061 63.2402 243.637 66.0456 243.637 69.2344C243.637 73.1094 244.161 76.4798 245.211 79.3457C246.26 82.2116 247.633 84.3913 249.328 85.8848C251.064 87.3783 252.799 88.4681 254.535 89.1543C256.271 89.8405 258.027 90.1836 259.803 90.1836C262.144 90.1836 264.344 89.6992 266.402 88.7305C268.461 87.7617 269.672 86.9141 270.035 86.1875C270.156 85.9453 270.217 85.582 270.217 85.0977V78.1348C270.217 77.3275 269.954 76.8027 269.43 76.5605C268.905 76.3184 267.815 76.1367 266.16 76.0156C265.434 75.9753 264.848 75.9349 264.404 75.8945C263.234 75.8138 262.648 75.3294 262.648 74.4414C262.648 73.513 263.113 73.0488 264.041 73.0488C264.162 73.0488 264.485 73.069 265.01 73.1094C265.575 73.1497 266.322 73.1901 267.25 73.2305C268.219 73.2708 269.268 73.291 270.398 73.291H270.52C271.69 73.291 272.78 73.2708 273.789 73.2305C274.798 73.1901 275.585 73.1497 276.15 73.1094C276.715 73.069 277.059 73.0488 277.18 73.0488C277.704 73.0488 278.088 73.1901 278.33 73.4727C278.613 73.7148 278.754 73.9974 278.754 74.3203C278.754 75.0065 278.229 75.5312 277.18 75.8945C276.171 76.2578 275.605 76.6816 275.484 77.166C275.444 77.2871 275.424 77.5091 275.424 77.832V88.3066C275.424 89.1139 275.141 89.5176 274.576 89.5176C274.334 89.5176 273.991 89.3158 273.547 88.9121C273.143 88.4681 272.861 88.2461 272.699 88.2461C272.457 88.2461 272.174 88.4076 271.852 88.7305C268.219 91.9193 263.98 93.5137 259.137 93.5137ZM282.447 49.8594L283.477 49.9199C284.163 49.9603 285.071 50.0208 286.201 50.1016C287.331 50.1419 288.462 50.1621 289.592 50.1621C290.762 50.1621 291.832 50.1419 292.801 50.1016C293.77 50.0612 294.516 50.0208 295.041 49.9805C295.606 49.9401 295.949 49.9199 296.07 49.9199C296.757 49.9199 297.1 50.3034 297.1 51.0703C297.1 51.2721 297.079 51.4538 297.039 51.6152C297.039 51.7363 297.019 51.8574 296.979 51.9785C296.979 52.0996 296.938 52.2005 296.857 52.2812C296.777 52.362 296.696 52.4427 296.615 52.5234C296.575 52.5638 296.474 52.6042 296.312 52.6445C296.151 52.6849 296.01 52.7253 295.889 52.7656C295.808 52.806 295.646 52.8464 295.404 52.8867C295.162 52.8867 294.96 52.9069 294.799 52.9473C294.637 52.9473 294.375 52.9674 294.012 53.0078C293.689 53.0078 293.406 53.028 293.164 53.0684C292.518 53.1087 292.195 53.4518 292.195 54.0977V87.5801C292.195 88.5488 292.559 89.0736 293.285 89.1543C293.689 89.1947 294.133 89.235 294.617 89.2754C295.102 89.2754 295.485 89.2754 295.768 89.2754C296.05 89.2754 296.333 89.2956 296.615 89.3359C296.938 89.3763 297.18 89.4167 297.342 89.457C297.503 89.4974 297.645 89.5579 297.766 89.6387C297.927 89.7194 298.028 89.8405 298.068 90.002C298.149 90.1634 298.189 90.3451 298.189 90.5469C298.189 91.7578 297.786 92.3633 296.979 92.3633C296.938 92.3633 296.777 92.3431 296.494 92.3027C296.212 92.3027 295.808 92.2826 295.283 92.2422C294.799 92.2018 294.254 92.1615 293.648 92.1211C293.043 92.0807 292.337 92.0404 291.529 92C290.722 92 289.915 92 289.107 92C288.3 92 287.493 92 286.686 92C285.878 92.0404 285.152 92.0807 284.506 92.1211C283.9 92.1615 283.355 92.2018 282.871 92.2422C282.387 92.2826 281.983 92.3027 281.66 92.3027C281.378 92.3431 281.216 92.3633 281.176 92.3633C280.53 92.3633 280.167 91.8991 280.086 90.9707C280.046 90.8496 280.025 90.6478 280.025 90.3652C280.025 89.8809 280.187 89.5781 280.51 89.457C280.873 89.3359 281.701 89.235 282.992 89.1543C283.88 89.1139 284.627 89.0736 285.232 89.0332C286.12 88.9928 286.564 88.4076 286.564 87.2773V55.0664C286.564 54.9453 286.564 54.7839 286.564 54.582C286.605 54.3398 286.625 54.1986 286.625 54.1582C286.625 53.6335 286.464 53.3105 286.141 53.1895C285.818 53.0684 285.091 52.9876 283.961 52.9473C283.355 52.9473 282.871 52.9271 282.508 52.8867C281.579 52.806 281.115 52.362 281.115 51.5547C281.115 50.4245 281.559 49.8594 282.447 49.8594ZM327.131 62.0293C327.131 62.1504 327.111 62.4733 327.07 62.998C327.03 63.4824 326.99 64.1686 326.949 65.0566C326.909 65.9043 326.889 66.8327 326.889 67.8418C326.889 68.8913 326.909 69.86 326.949 70.748C326.99 71.5957 327.03 72.2819 327.07 72.8066C327.111 73.291 327.131 73.5736 327.131 73.6543C327.131 74.7441 326.566 75.2891 325.436 75.2891C325.274 75.2891 325.133 75.2891 325.012 75.2891C324.891 75.2487 324.77 75.1882 324.648 75.1074C324.568 75.0267 324.487 74.946 324.406 74.8652C324.326 74.7845 324.265 74.6634 324.225 74.502C324.184 74.3405 324.144 74.179 324.104 74.0176C324.063 73.8561 324.023 73.6341 323.982 73.3516C323.942 73.069 323.902 72.8268 323.861 72.625C323.861 72.3828 323.841 72.0599 323.801 71.6562C323.76 71.2526 323.72 70.8893 323.68 70.5664C323.639 69.9609 323.276 69.6582 322.59 69.6582H312.479C312.075 69.6582 311.752 69.7591 311.51 69.9609C311.308 70.1628 311.187 70.3646 311.146 70.5664C311.146 70.7682 311.146 71.0508 311.146 71.4141V86.793C311.146 87.2773 311.167 87.6406 311.207 87.8828C311.288 88.125 311.51 88.3874 311.873 88.6699C312.277 88.9121 312.882 89.0534 313.689 89.0938C314.093 89.0938 314.517 89.0938 314.961 89.0938C315.405 89.0938 315.748 89.0938 315.99 89.0938C316.273 89.0938 316.576 89.1139 316.898 89.1543C317.221 89.1543 317.464 89.1745 317.625 89.2148C317.827 89.2148 318.008 89.235 318.17 89.2754C318.372 89.2754 318.513 89.3158 318.594 89.3965C318.715 89.4772 318.816 89.5579 318.896 89.6387C318.977 89.7194 319.038 89.8405 319.078 90.002C319.118 90.123 319.139 90.2845 319.139 90.4863V91.0918C319.139 91.9395 318.775 92.3633 318.049 92.3633L316.898 92.2422C316.091 92.2018 315.021 92.1413 313.689 92.0605C312.357 92.0202 311.025 92 309.693 92C308.846 92 307.978 92 307.09 92C306.242 92.0404 305.495 92.0807 304.85 92.1211C304.204 92.1615 303.618 92.2018 303.094 92.2422C302.569 92.2826 302.145 92.3027 301.822 92.3027C301.54 92.3431 301.378 92.3633 301.338 92.3633C300.369 92.3633 299.885 91.8991 299.885 90.9707C299.885 90.7285 299.905 90.5267 299.945 90.3652C299.986 90.1634 300.046 90.002 300.127 89.8809C300.248 89.7598 300.349 89.679 300.43 89.6387C300.51 89.5579 300.672 89.4974 300.914 89.457C301.197 89.4167 301.419 89.3965 301.58 89.3965C301.742 89.3561 302.024 89.3359 302.428 89.3359C302.831 89.2956 303.174 89.2552 303.457 89.2148C304.224 89.1341 304.708 88.9525 304.91 88.6699C305.152 88.347 305.273 87.8828 305.273 87.2773V54.4004C305.273 54.1582 305.253 53.9564 305.213 53.7949C305.213 53.6335 305.173 53.4922 305.092 53.3711C305.051 53.25 304.991 53.1491 304.91 53.0684C304.87 52.9876 304.769 52.9271 304.607 52.8867C304.446 52.806 304.305 52.7454 304.184 52.7051C304.103 52.6647 303.921 52.6445 303.639 52.6445C303.396 52.6042 303.195 52.584 303.033 52.584C302.872 52.584 302.589 52.584 302.186 52.584C301.822 52.5436 301.52 52.5234 301.277 52.5234C300.309 52.5234 299.824 52.0794 299.824 51.1914C299.824 49.9401 300.208 49.3145 300.975 49.3145C301.096 49.3145 301.378 49.3548 301.822 49.4355C302.266 49.4759 302.872 49.5163 303.639 49.5566C304.446 49.597 305.294 49.6172 306.182 49.6172C306.868 49.6172 308.422 49.597 310.844 49.5566C313.266 49.4759 315.062 49.4355 316.232 49.4355H327.979H328.281C329.411 49.4355 330.098 49.9401 330.34 50.9492C330.421 51.3529 330.582 52.1198 330.824 53.25C331.107 54.3802 331.329 55.3691 331.49 56.2168C331.692 57.0241 331.793 57.4883 331.793 57.6094C331.793 58.013 331.672 58.3561 331.43 58.6387C331.188 58.8809 330.885 59.002 330.521 59.002C329.835 59.002 328.846 57.8112 327.555 55.4297C327.151 54.7839 326.848 54.2591 326.646 53.8555C326.324 53.3307 326.021 52.9876 325.738 52.8262C325.456 52.6647 325.032 52.584 324.467 52.584H313.023C312.499 52.584 312.095 52.7051 311.812 52.9473C311.53 53.1895 311.368 53.4518 311.328 53.7344C311.288 53.9766 311.268 54.3398 311.268 54.8242V65.1777C311.268 65.7832 311.57 66.0859 312.176 66.0859H322.529C322.691 66.0859 322.812 66.0859 322.893 66.0859C323.014 66.0456 323.115 66.0052 323.195 65.9648C323.316 65.9245 323.397 65.8841 323.438 65.8438C323.478 65.8034 323.518 65.7227 323.559 65.6016C323.639 65.4805 323.7 65.3796 323.74 65.2988C323.781 65.1777 323.821 65.0163 323.861 64.8145C323.902 64.5723 323.922 64.3704 323.922 64.209C323.962 64.0072 324.003 63.7448 324.043 63.4219C324.124 63.0586 324.184 62.7357 324.225 62.4531C324.386 61.3229 324.87 60.7578 325.678 60.7578C326.081 60.7578 326.424 60.8789 326.707 61.1211C326.99 61.3633 327.131 61.666 327.131 62.0293ZM363.338 92.3633L362.127 92.2422C361.36 92.2018 360.29 92.1413 358.918 92.0605C357.586 92.0202 356.254 92 354.922 92C354.074 92 353.206 92 352.318 92C351.471 92.0404 350.704 92.0807 350.018 92.1211C349.372 92.1615 348.786 92.2018 348.262 92.2422C347.737 92.2826 347.313 92.3027 346.99 92.3027C346.667 92.3431 346.486 92.3633 346.445 92.3633C345.638 92.3633 345.234 91.8385 345.234 90.7891C345.234 90.1432 345.396 89.7396 345.719 89.5781C346.082 89.4167 346.889 89.2956 348.141 89.2148C348.827 89.1745 349.372 89.1341 349.775 89.0938C350.623 89.013 351.168 88.791 351.41 88.4277C351.693 88.0645 351.834 87.5195 351.834 86.793V55.3691C351.834 54.9655 351.814 54.6628 351.773 54.4609C351.733 54.2591 351.572 54.0371 351.289 53.7949C351.047 53.5527 350.684 53.4316 350.199 53.4316H340.936C340.169 53.4316 339.644 53.5326 339.361 53.7344C339.079 53.8958 338.816 54.2188 338.574 54.7031C336.879 58.0534 335.971 59.8092 335.85 59.9707C335.567 60.2936 335.224 60.4551 334.82 60.4551C334.417 60.4551 334.074 60.3138 333.791 60.0312C333.549 59.7083 333.428 59.3249 333.428 58.8809V58.8203C333.428 58.6589 334.033 55.8132 335.244 50.2832C335.365 49.6374 335.789 49.3145 336.516 49.3145H372.662C373.348 49.3145 373.772 49.7988 373.934 50.7676C374.943 56.015 375.447 58.6589 375.447 58.6992C375.447 59.0625 375.326 59.3854 375.084 59.668C374.842 59.9505 374.559 60.0918 374.236 60.0918C373.752 60.0918 373.288 59.6882 372.844 58.8809C372.602 58.4772 372.339 58.0332 372.057 57.5488C371.774 57.0241 371.552 56.6406 371.391 56.3984C371.27 56.1159 371.108 55.8132 370.906 55.4902C370.745 55.127 370.604 54.8848 370.482 54.7637C370.361 54.6022 370.24 54.4408 370.119 54.2793C369.998 54.0775 369.877 53.9564 369.756 53.916C369.675 53.8353 369.574 53.7546 369.453 53.6738C369.332 53.5931 369.191 53.5527 369.029 53.5527C368.908 53.5124 368.767 53.4922 368.605 53.4922C368.484 53.4518 368.323 53.4316 368.121 53.4316H358.979C358.575 53.4316 358.252 53.5326 358.01 53.7344C357.808 53.9362 357.687 54.138 357.646 54.3398C357.646 54.5013 357.646 54.7637 357.646 55.127V87.5801C357.646 88.2259 357.828 88.6296 358.191 88.791C358.595 88.9525 359.624 89.0938 361.279 89.2148C362.127 89.2956 362.793 89.3561 363.277 89.3965C363.721 89.4368 364.004 89.5781 364.125 89.8203C364.286 90.0625 364.367 90.5065 364.367 91.1523C364.367 91.9596 364.024 92.3633 363.338 92.3633Z" fill="#B29142"/>
</svg>
