<svg width="620" height="144" viewBox="0 0 620 144" fill="none" xmlns="http://www.w3.org/2000/svg">
<path fill-rule="evenodd" clip-rule="evenodd" d="M0 52.6627V95.3373C19.2778 104.916 34.9054 120.553 44.2877 139.7L48.6649 144H570.717L576.305 138.511C585.746 119.906 601.123 104.717 620 95.3373V52.6627C598.941 42.1989 582.238 24.5052 573.274 2.90445L570.317 0H49.0691L47.1376 1.89723C38.6329 23.0733 22.7231 40.5848 2.54274 51.353C1.70249 51.8013 0.854834 52.238 0 52.6627Z" fill="#3B3C43"/>
<path fill-rule="evenodd" clip-rule="evenodd" d="M0 52.6627V95.3373C19.2778 104.916 34.9054 120.553 44.2877 139.7L48.6649 144H570.717L576.305 138.511C585.746 119.906 601.123 104.717 620 95.3373V52.6627C598.941 42.1989 582.238 24.5052 573.274 2.90445L570.317 0H49.0691L47.1376 1.89723C38.6329 23.0733 22.7231 40.5848 2.54274 51.353C1.70249 51.8013 0.854834 52.238 0 52.6627Z" fill="#121948"/>
<path d="M108.654 68.3781C108.654 73.8859 110.294 78.5344 113.575 82.3234C116.857 86.0734 120.841 87.9484 125.529 87.9484C129.044 87.9484 132.247 86.8742 135.138 84.7258C138.068 82.5773 140.079 79.7258 141.173 76.1711C141.368 75.6242 141.661 75.3508 142.052 75.3508C142.716 75.3508 143.048 75.5851 143.048 76.0539C142.15 82.2648 141.642 85.507 141.525 85.7805C141.329 86.4445 140.88 86.7766 140.177 86.7766H140.118H138.478C138.009 86.7766 137.657 86.8156 137.423 86.8937C137.228 86.9719 136.935 87.1476 136.544 87.4211C136.193 87.6945 135.9 87.8898 135.665 88.007C132.15 90.0383 128.439 91.0539 124.532 91.0539C121.759 91.0539 119.044 90.507 116.388 89.4133C113.732 88.3195 111.388 86.7961 109.357 84.843C107.325 82.8508 105.724 80.507 104.552 77.8117C103.419 75.1164 102.853 72.343 102.853 69.4914C102.853 66.5617 103.458 63.7297 104.669 60.9953C105.88 58.2609 107.501 55.9172 109.532 53.9641C113.829 49.8625 118.927 47.8117 124.825 47.8117H124.884C127.032 47.8117 129.005 48.0851 130.802 48.632C132.638 49.1398 134.044 49.6672 135.021 50.2141C136.036 50.7609 136.583 51.0344 136.661 51.0344C136.974 51.0344 137.247 50.7023 137.482 50.0383C137.716 49.3742 138.029 48.9836 138.419 48.8664C138.497 48.8664 138.615 48.8664 138.771 48.8664C138.927 48.8273 139.025 48.8078 139.064 48.8078C139.493 48.8078 139.747 49.0422 139.825 49.5109L140.236 52.5578C140.509 54.6281 140.782 56.718 141.056 58.8273C141.329 60.9367 141.466 62.0695 141.466 62.2258C141.466 62.8898 141.056 63.2219 140.236 63.2219C139.493 63.2219 139.064 63.1047 138.947 62.8703C138.829 62.5969 138.693 61.7766 138.536 60.4094C138.341 58.925 137.814 57.6164 136.954 56.4836C135.587 54.7648 133.849 53.3586 131.74 52.2648C129.63 51.132 127.286 50.5656 124.708 50.5656C120.372 50.5656 116.603 52.2062 113.4 55.4875C110.236 58.7687 108.654 63.0656 108.654 68.3781ZM189.279 69.3742C189.279 75.5851 187.169 80.7609 182.95 84.9016C178.771 89.0031 173.712 91.0539 167.775 91.0539C164.845 91.0539 161.974 90.4875 159.161 89.3547C156.349 88.2219 153.868 86.6203 151.72 84.55C147.15 80.1359 144.825 74.7648 144.747 68.4367C144.747 62.382 146.915 57.2062 151.251 52.9094C155.626 48.5734 160.841 46.4055 166.896 46.4055C173.224 46.4055 178.536 48.6711 182.833 53.2023C187.13 57.7336 189.279 63.1242 189.279 69.3742ZM150.49 66.5617C150.49 69.218 150.841 71.7766 151.544 74.2375C152.286 76.6984 153.341 78.925 154.708 80.9172C156.075 82.9094 157.872 84.5109 160.099 85.7219C162.325 86.9328 164.806 87.5383 167.54 87.5383C169.376 87.5383 171.173 87.2258 172.931 86.6008C174.689 85.9758 176.368 85.0383 177.97 83.7883C179.572 82.4992 180.861 80.7023 181.837 78.3976C182.853 76.093 183.361 73.4367 183.361 70.4289C183.361 67.2648 182.814 64.1789 181.72 61.1711C180.665 58.1242 179.005 55.6047 176.74 53.6125C173.693 50.9172 170.099 49.5695 165.958 49.5695C164.044 49.5695 162.189 49.9211 160.392 50.6242C158.595 51.2883 156.935 52.2844 155.411 53.6125C153.927 54.9016 152.736 56.6789 151.837 58.9445C150.939 61.1711 150.49 63.7101 150.49 66.5617ZM199.415 49.1008C200.704 49.1008 201.896 49.1008 202.99 49.1008C204.083 49.0617 204.943 49.0226 205.568 48.9836C206.193 48.9445 206.564 48.925 206.681 48.925C207.111 48.925 207.384 49.0617 207.501 49.3351C207.618 49.5695 207.677 49.9601 207.677 50.507C207.677 51.4445 207.228 51.9133 206.329 51.9133C205.939 51.9133 205.509 51.9328 205.04 51.9719C204.611 51.9719 204.279 51.9719 204.044 51.9719C203.81 51.9719 203.536 51.9719 203.224 51.9719C202.95 51.9719 202.736 51.9914 202.579 52.0305C202.423 52.0305 202.267 52.0695 202.111 52.1476C201.954 52.1867 201.837 52.2453 201.759 52.3234C201.681 52.4016 201.603 52.5187 201.525 52.675C201.486 52.7922 201.447 52.9289 201.407 53.0851C201.407 53.2414 201.407 53.4367 201.407 53.6711V84.0812C201.407 85.3703 201.935 86.0148 202.99 86.0148H214.474H214.65C216.134 86.0148 217.228 85.468 217.931 84.3742C218.126 84.0617 218.556 83.1633 219.22 81.6789C219.923 80.1945 220.333 79.3937 220.45 79.2766C220.685 78.9641 220.978 78.8078 221.329 78.8078C221.525 78.8078 221.74 78.8469 221.974 78.925C222.208 78.9641 222.462 79.1008 222.736 79.3351C223.009 79.5305 223.146 79.8039 223.146 80.1555C223.146 80.468 222.755 83.3 221.974 88.6516C221.935 88.925 221.876 89.1398 221.798 89.2961C221.759 89.4523 221.603 89.5891 221.329 89.7062C221.095 89.8625 220.763 89.9406 220.333 89.9406C220.216 89.9406 219.689 89.9211 218.751 89.882C217.814 89.882 216.564 89.8625 215.001 89.8234C213.439 89.7844 211.681 89.7453 209.728 89.7062C207.775 89.6672 205.509 89.6281 202.931 89.5891C200.353 89.5891 197.814 89.5891 195.314 89.5891H192.15C191.486 89.5891 191.154 89.2766 191.154 88.6516C191.154 88.1437 191.31 87.8117 191.622 87.6555C191.974 87.4601 192.755 87.2453 193.966 87.0109C194.2 86.9719 194.376 86.9328 194.493 86.8937C195.392 86.6594 195.841 86.0148 195.841 84.9601V84.7844V53.2609C195.841 53.0266 195.822 52.8508 195.782 52.7336C195.782 52.5773 195.743 52.4406 195.665 52.3234C195.626 52.2062 195.548 52.1281 195.431 52.0891C195.353 52.0109 195.255 51.9719 195.138 51.9719C195.021 51.9328 194.865 51.9133 194.669 51.9133C194.513 51.8742 194.318 51.8547 194.083 51.8547C193.888 51.8547 193.654 51.8547 193.38 51.8547C193.107 51.8547 192.814 51.8547 192.501 51.8547C191.486 51.7766 190.978 51.2883 190.978 50.3898C190.978 49.4133 191.368 48.925 192.15 48.925C192.306 48.925 192.657 48.9445 193.204 48.9836C193.751 48.9836 194.532 49.0031 195.548 49.0422C196.603 49.0812 197.736 49.1008 198.947 49.1008H199.415ZM233.165 49.1008C234.454 49.1008 235.646 49.1008 236.74 49.1008C237.833 49.0617 238.693 49.0226 239.318 48.9836C239.943 48.9445 240.314 48.925 240.431 48.925C240.861 48.925 241.134 49.0617 241.251 49.3351C241.368 49.5695 241.427 49.9601 241.427 50.507C241.427 51.4445 240.978 51.9133 240.079 51.9133C239.689 51.9133 239.259 51.9328 238.79 51.9719C238.361 51.9719 238.029 51.9719 237.794 51.9719C237.56 51.9719 237.286 51.9719 236.974 51.9719C236.7 51.9719 236.486 51.9914 236.329 52.0305C236.173 52.0305 236.017 52.0695 235.861 52.1476C235.704 52.1867 235.587 52.2453 235.509 52.3234C235.431 52.4016 235.353 52.5187 235.275 52.675C235.236 52.7922 235.197 52.9289 235.157 53.0851C235.157 53.2414 235.157 53.4367 235.157 53.6711V84.0812C235.157 85.3703 235.685 86.0148 236.74 86.0148H248.224H248.4C249.884 86.0148 250.978 85.468 251.681 84.3742C251.876 84.0617 252.306 83.1633 252.97 81.6789C253.673 80.1945 254.083 79.3937 254.2 79.2766C254.435 78.9641 254.728 78.8078 255.079 78.8078C255.275 78.8078 255.49 78.8469 255.724 78.925C255.958 78.9641 256.212 79.1008 256.486 79.3351C256.759 79.5305 256.896 79.8039 256.896 80.1555C256.896 80.468 256.505 83.3 255.724 88.6516C255.685 88.925 255.626 89.1398 255.548 89.2961C255.509 89.4523 255.353 89.5891 255.079 89.7062C254.845 89.8625 254.513 89.9406 254.083 89.9406C253.966 89.9406 253.439 89.9211 252.501 89.882C251.564 89.882 250.314 89.8625 248.751 89.8234C247.189 89.7844 245.431 89.7453 243.478 89.7062C241.525 89.6672 239.259 89.6281 236.681 89.5891C234.103 89.5891 231.564 89.5891 229.064 89.5891H225.9C225.236 89.5891 224.904 89.2766 224.904 88.6516C224.904 88.1437 225.06 87.8117 225.372 87.6555C225.724 87.4601 226.505 87.2453 227.716 87.0109C227.95 86.9719 228.126 86.9328 228.243 86.8937C229.142 86.6594 229.591 86.0148 229.591 84.9601V84.7844V53.2609C229.591 53.0266 229.572 52.8508 229.532 52.7336C229.532 52.5773 229.493 52.4406 229.415 52.3234C229.376 52.2062 229.298 52.1281 229.181 52.0891C229.103 52.0109 229.005 51.9719 228.888 51.9719C228.771 51.9328 228.615 51.9133 228.419 51.9133C228.263 51.8742 228.068 51.8547 227.833 51.8547C227.638 51.8547 227.404 51.8547 227.13 51.8547C226.857 51.8547 226.564 51.8547 226.251 51.8547C225.236 51.7766 224.728 51.2883 224.728 50.3898C224.728 49.4133 225.118 48.925 225.9 48.925C226.056 48.925 226.407 48.9445 226.954 48.9836C227.501 48.9836 228.282 49.0031 229.298 49.0422C230.353 49.0812 231.486 49.1008 232.697 49.1008H233.165ZM283.966 58.8273C285.099 58.8273 285.665 59.3937 285.665 60.5266V71.6008C285.665 72.7336 285.099 73.3 283.966 73.3C282.911 73.3 282.384 72.8703 282.384 72.0109V68.7883C282.384 67.8898 281.857 67.4406 280.802 67.4406H272.54C272.111 67.4406 271.759 67.4601 271.486 67.4992C271.212 67.5383 270.9 67.6359 270.548 67.7922C270.236 67.9094 270.001 68.1437 269.845 68.4953C269.689 68.8469 269.611 69.2961 269.611 69.843V83.6125C269.611 84.0422 269.63 84.3937 269.669 84.6672C269.747 84.9016 269.923 85.1555 270.197 85.4289C270.509 85.6633 270.939 85.8195 271.486 85.8976C273.243 86.1711 275.118 86.3078 277.111 86.3078C278.439 86.3078 280.079 86.1906 282.032 85.9562C283.986 85.7219 285.216 85.4094 285.724 85.0187C286.075 84.7453 286.779 83.6711 287.833 81.7961C288.888 79.882 289.572 78.8273 289.884 78.632C290.118 78.5148 290.314 78.4562 290.47 78.4562C290.743 78.4562 290.978 78.5734 291.173 78.8078C291.407 79.0422 291.525 79.3742 291.525 79.8039V79.8625C291.525 80.2141 290.919 83.0656 289.708 88.4172C289.63 88.8859 289.454 89.1984 289.181 89.3547C288.947 89.5109 288.517 89.5891 287.892 89.5891H267.267C265.47 89.5891 263.79 89.7062 262.228 89.9406C260.704 90.175 259.904 90.2922 259.825 90.2922C259.357 90.2922 258.986 90.0578 258.712 89.5891C258.478 89.1594 258.361 88.8078 258.361 88.5344C258.361 88.1047 258.517 87.7922 258.829 87.5969C259.142 87.4016 259.923 87.0695 261.173 86.6008C261.876 86.3273 262.462 86.1125 262.931 85.9562C263.829 85.6437 264.279 84.8625 264.279 83.6125V52.3234C264.279 51.8937 264.181 51.6203 263.986 51.5031C263.79 51.3859 263.341 51.2687 262.638 51.1516C262.286 51.1125 261.857 51.0734 261.349 51.0344C260.841 50.9953 260.45 50.9562 260.177 50.9172C259.943 50.8781 259.689 50.8195 259.415 50.7414C259.142 50.6242 258.947 50.468 258.829 50.2726C258.712 50.0773 258.654 49.8039 258.654 49.4523C258.654 48.5539 259.044 48.1047 259.825 48.1047H287.423C288.087 48.1047 288.517 48.4367 288.712 49.1008C288.868 49.843 289.083 50.8781 289.357 52.2062C289.669 53.5344 289.923 54.6672 290.118 55.6047C290.353 56.5031 290.47 56.9914 290.47 57.0695C290.47 57.6555 290.06 57.9484 289.24 57.9484C288.615 57.9484 288.048 57.5969 287.54 56.8937C285.782 53.8078 284.786 52.1281 284.552 51.8547C284.2 51.5031 283.634 51.3273 282.853 51.3273H271.544C270.763 51.3273 270.255 51.5226 270.021 51.9133C269.825 52.3039 269.728 52.8703 269.728 53.6125V62.6359C269.728 63.5344 270.118 63.9836 270.9 63.9836H280.099C280.529 63.9836 280.88 63.9641 281.154 63.925C281.427 63.8469 281.7 63.6516 281.974 63.3391C282.247 63.0266 282.384 62.5773 282.384 61.9914V60.1164C282.384 59.257 282.911 58.8273 283.966 58.8273ZM299.376 68.3781C299.376 73.8859 301.017 78.5344 304.298 82.3234C307.579 86.0734 311.564 87.9484 316.251 87.9484C319.767 87.9484 322.97 86.8742 325.861 84.7258C328.79 82.5773 330.802 79.7258 331.896 76.1711C332.091 75.6242 332.384 75.3508 332.775 75.3508C333.439 75.3508 333.771 75.5851 333.771 76.0539C332.872 82.2648 332.365 85.507 332.247 85.7805C332.052 86.4445 331.603 86.7766 330.9 86.7766H330.841H329.2C328.732 86.7766 328.38 86.8156 328.146 86.8937C327.95 86.9719 327.657 87.1476 327.267 87.4211C326.915 87.6945 326.622 87.8898 326.388 88.007C322.872 90.0383 319.161 91.0539 315.255 91.0539C312.482 91.0539 309.767 90.507 307.111 89.4133C304.454 88.3195 302.111 86.7961 300.079 84.843C298.048 82.8508 296.447 80.507 295.275 77.8117C294.142 75.1164 293.575 72.343 293.575 69.4914C293.575 66.5617 294.181 63.7297 295.392 60.9953C296.603 58.2609 298.224 55.9172 300.255 53.9641C304.552 49.8625 309.65 47.8117 315.548 47.8117H315.607C317.755 47.8117 319.728 48.0851 321.525 48.632C323.361 49.1398 324.767 49.6672 325.743 50.2141C326.759 50.7609 327.306 51.0344 327.384 51.0344C327.697 51.0344 327.97 50.7023 328.204 50.0383C328.439 49.3742 328.751 48.9836 329.142 48.8664C329.22 48.8664 329.337 48.8664 329.493 48.8664C329.65 48.8273 329.747 48.8078 329.786 48.8078C330.216 48.8078 330.47 49.0422 330.548 49.5109L330.958 52.5578C331.232 54.6281 331.505 56.718 331.779 58.8273C332.052 60.9367 332.189 62.0695 332.189 62.2258C332.189 62.8898 331.779 63.2219 330.958 63.2219C330.216 63.2219 329.786 63.1047 329.669 62.8703C329.552 62.5969 329.415 61.7766 329.259 60.4094C329.064 58.925 328.536 57.6164 327.677 56.4836C326.31 54.7648 324.572 53.3586 322.462 52.2648C320.353 51.132 318.009 50.5656 315.431 50.5656C311.095 50.5656 307.325 52.2062 304.122 55.4875C300.958 58.7687 299.376 63.0656 299.376 68.3781ZM364.064 89.9406L362.892 89.8234C362.15 89.7844 361.114 89.7258 359.786 89.6476C358.497 89.6086 357.208 89.5891 355.919 89.5891C355.099 89.5891 354.259 89.5891 353.4 89.5891C352.579 89.6281 351.837 89.6672 351.173 89.7062C350.548 89.7453 349.982 89.7844 349.474 89.8234C348.966 89.8625 348.556 89.882 348.243 89.882C347.931 89.9211 347.755 89.9406 347.716 89.9406C346.935 89.9406 346.544 89.4328 346.544 88.4172C346.544 87.7922 346.7 87.4016 347.013 87.2453C347.364 87.0891 348.146 86.9719 349.357 86.8937C350.021 86.8547 350.548 86.8156 350.939 86.7766C351.759 86.6984 352.286 86.4836 352.521 86.132C352.794 85.7805 352.931 85.2531 352.931 84.55V54.1398C352.931 53.7492 352.911 53.4562 352.872 53.2609C352.833 53.0656 352.677 52.8508 352.404 52.6164C352.169 52.382 351.818 52.2648 351.349 52.2648H342.384C341.642 52.2648 341.134 52.3625 340.861 52.5578C340.587 52.7141 340.333 53.0266 340.099 53.4953C338.458 56.7375 337.579 58.4367 337.462 58.593C337.189 58.9055 336.857 59.0617 336.466 59.0617C336.075 59.0617 335.743 58.925 335.47 58.6516C335.236 58.3391 335.118 57.968 335.118 57.5383V57.4797C335.118 57.3234 335.704 54.5695 336.876 49.218C336.993 48.593 337.404 48.2805 338.107 48.2805H373.087C373.751 48.2805 374.161 48.7492 374.318 49.6867C375.294 54.7648 375.782 57.3234 375.782 57.3625C375.782 57.7141 375.665 58.0266 375.431 58.3C375.197 58.5734 374.923 58.7101 374.611 58.7101C374.142 58.7101 373.693 58.3195 373.263 57.5383C373.029 57.1476 372.775 56.718 372.501 56.2492C372.228 55.7414 372.013 55.3703 371.857 55.1359C371.739 54.8625 371.583 54.5695 371.388 54.257C371.232 53.9055 371.095 53.6711 370.978 53.5539C370.861 53.3976 370.743 53.2414 370.626 53.0851C370.509 52.8898 370.392 52.7726 370.275 52.7336C370.197 52.6555 370.099 52.5773 369.982 52.4992C369.864 52.4211 369.728 52.382 369.572 52.382C369.454 52.343 369.318 52.3234 369.161 52.3234C369.044 52.2844 368.888 52.2648 368.693 52.2648H359.845C359.454 52.2648 359.142 52.3625 358.907 52.5578C358.712 52.7531 358.595 52.9484 358.556 53.1437C358.556 53.3 358.556 53.5539 358.556 53.9055V85.3117C358.556 85.9367 358.732 86.3273 359.083 86.4836C359.474 86.6398 360.47 86.7766 362.072 86.8937C362.892 86.9719 363.536 87.0305 364.005 87.0695C364.435 87.1086 364.708 87.2453 364.825 87.4797C364.982 87.7141 365.06 88.1437 365.06 88.7687C365.06 89.55 364.728 89.9406 364.064 89.9406ZM379.005 48.8078L380.001 48.8664C380.665 48.9055 381.544 48.9641 382.638 49.0422C383.732 49.0812 384.825 49.1008 385.919 49.1008C387.052 49.1008 388.087 49.0812 389.025 49.0422C389.962 49.0031 390.685 48.9641 391.193 48.925C391.739 48.8859 392.072 48.8664 392.189 48.8664C392.853 48.8664 393.185 49.2375 393.185 49.9797C393.185 50.175 393.165 50.3508 393.126 50.507C393.126 50.6242 393.107 50.7414 393.068 50.8586C393.068 50.9758 393.029 51.0734 392.95 51.1516C392.872 51.2297 392.794 51.3078 392.716 51.3859C392.677 51.425 392.579 51.4641 392.423 51.5031C392.267 51.5422 392.13 51.5812 392.013 51.6203C391.935 51.6594 391.779 51.6984 391.544 51.7375C391.31 51.7375 391.114 51.757 390.958 51.7961C390.802 51.7961 390.548 51.8156 390.197 51.8547C389.884 51.8547 389.611 51.8742 389.376 51.9133C388.751 51.9523 388.439 52.2844 388.439 52.9094V85.3117C388.439 86.2492 388.79 86.757 389.493 86.8351C389.884 86.8742 390.314 86.9133 390.782 86.9523C391.251 86.9523 391.622 86.9523 391.896 86.9523C392.169 86.9523 392.443 86.9719 392.716 87.0109C393.029 87.05 393.263 87.0891 393.419 87.1281C393.575 87.1672 393.712 87.2258 393.829 87.3039C393.986 87.382 394.083 87.4992 394.122 87.6555C394.2 87.8117 394.239 87.9875 394.239 88.1828C394.239 89.3547 393.849 89.9406 393.068 89.9406C393.029 89.9406 392.872 89.9211 392.599 89.882C392.325 89.882 391.935 89.8625 391.427 89.8234C390.958 89.7844 390.431 89.7453 389.845 89.7062C389.259 89.6672 388.575 89.6281 387.794 89.5891C387.013 89.5891 386.232 89.5891 385.45 89.5891C384.669 89.5891 383.888 89.5891 383.107 89.5891C382.325 89.6281 381.622 89.6672 380.997 89.7062C380.411 89.7453 379.884 89.7844 379.415 89.8234C378.947 89.8625 378.556 89.882 378.243 89.882C377.97 89.9211 377.814 89.9406 377.775 89.9406C377.15 89.9406 376.798 89.4914 376.72 88.593C376.681 88.4758 376.661 88.2805 376.661 88.007C376.661 87.5383 376.818 87.2453 377.13 87.1281C377.482 87.0109 378.282 86.9133 379.532 86.8351C380.392 86.7961 381.114 86.757 381.7 86.718C382.56 86.6789 382.989 86.1125 382.989 85.0187V53.8469C382.989 53.7297 382.989 53.5734 382.989 53.3781C383.029 53.1437 383.048 53.007 383.048 52.968C383.048 52.4601 382.892 52.1476 382.579 52.0305C382.267 51.9133 381.564 51.8351 380.47 51.7961C379.884 51.7961 379.415 51.7766 379.064 51.7375C378.165 51.6594 377.716 51.2297 377.716 50.4484C377.716 49.3547 378.146 48.8078 379.005 48.8078ZM440.822 69.3742C440.822 75.5851 438.712 80.7609 434.493 84.9016C430.314 89.0031 425.255 91.0539 419.318 91.0539C416.388 91.0539 413.517 90.4875 410.704 89.3547C407.892 88.2219 405.411 86.6203 403.263 84.55C398.693 80.1359 396.368 74.7648 396.29 68.4367C396.29 62.382 398.458 57.2062 402.794 52.9094C407.169 48.5734 412.384 46.4055 418.439 46.4055C424.767 46.4055 430.079 48.6711 434.376 53.2023C438.673 57.7336 440.822 63.1242 440.822 69.3742ZM402.032 66.5617C402.032 69.218 402.384 71.7766 403.087 74.2375C403.829 76.6984 404.884 78.925 406.251 80.9172C407.618 82.9094 409.415 84.5109 411.642 85.7219C413.868 86.9328 416.349 87.5383 419.083 87.5383C420.919 87.5383 422.716 87.2258 424.474 86.6008C426.232 85.9758 427.911 85.0383 429.513 83.7883C431.114 82.4992 432.404 80.7023 433.38 78.3976C434.396 76.093 434.904 73.4367 434.904 70.4289C434.904 67.2648 434.357 64.1789 433.263 61.1711C432.208 58.1242 430.548 55.6047 428.282 53.6125C425.236 50.9172 421.642 49.5695 417.501 49.5695C415.587 49.5695 413.732 49.9211 411.935 50.6242C410.138 51.2883 408.478 52.2844 406.954 53.6125C405.47 54.9016 404.279 56.6789 403.38 58.9445C402.482 61.1711 402.032 63.7101 402.032 66.5617ZM450.841 57.0695V56.8351C450.841 56.2883 450.177 55.4094 448.849 54.1984C447.286 52.6359 445.509 51.7766 443.517 51.6203C442.775 51.6203 442.404 51.1711 442.404 50.2726C442.404 49.257 442.853 48.7492 443.751 48.7492H451.134C452.111 48.7492 452.911 49.1203 453.536 49.8625L462.911 60.7609L468.419 66.9133C475.763 74.882 479.591 78.9641 479.904 79.1594C479.982 79.2375 480.06 79.2766 480.138 79.2766C480.411 79.2766 480.548 79.0812 480.548 78.6906C480.548 78.2219 480.568 77.5578 480.607 76.6984C480.646 75.8 480.665 74.9992 480.665 74.2961C480.704 73.5539 480.724 72.8703 480.724 72.2453C480.724 66.8547 480.529 60.8976 480.138 54.3742C480.099 53.2023 479.825 52.4601 479.318 52.1476C478.81 51.8351 477.794 51.6008 476.271 51.4445C475.372 51.3273 474.923 50.8976 474.923 50.1555C474.923 49.8039 475.06 49.4914 475.333 49.218C475.607 48.9055 476.056 48.7492 476.681 48.7492C476.759 48.7492 477.032 48.7687 477.501 48.8078C478.009 48.8078 478.693 48.8273 479.552 48.8664C480.45 48.9055 481.407 48.925 482.423 48.925C483.439 48.925 484.357 48.9055 485.177 48.8664C486.036 48.8273 486.7 48.8078 487.169 48.8078C487.677 48.7687 487.97 48.7492 488.048 48.7492C488.907 48.7492 489.337 49.1984 489.337 50.0969C489.337 50.4094 489.298 50.6633 489.22 50.8586C489.142 51.0539 488.986 51.2101 488.751 51.3273C488.517 51.4055 488.322 51.4641 488.165 51.5031C488.048 51.5031 487.794 51.5226 487.404 51.5617C487.013 51.5617 486.739 51.5617 486.583 51.5617C485.568 51.6398 484.864 51.9523 484.474 52.4992C484.122 53.0461 483.927 54.1203 483.888 55.7219C483.732 62.5187 483.654 67.7141 483.654 71.3078C483.654 74.2766 483.673 77.0305 483.712 79.5695C483.751 82.1086 483.79 84.1008 483.829 85.5461C483.868 86.9523 483.888 87.8117 483.888 88.1242C483.888 90.0383 483.478 90.9953 482.657 90.9953C482.189 90.9953 481.212 90.1555 479.728 88.4758L467.306 74.2961C458.517 64.5305 454.083 59.6476 454.005 59.6476L453.771 59.882C453.224 68.0851 452.95 75.1945 452.95 81.2101V82.9094C452.95 84.5109 453.107 85.5461 453.419 86.0148C453.732 86.4836 454.493 86.757 455.704 86.8351C457.189 86.8351 458.4 86.9719 459.337 87.2453C459.845 87.4797 460.099 88.007 460.099 88.8273C460.099 89.5695 459.767 89.9406 459.103 89.9406C459.064 89.9406 458.907 89.9211 458.634 89.882C458.361 89.882 457.989 89.8625 457.521 89.8234C457.091 89.7844 456.583 89.7453 455.997 89.7062C455.411 89.6672 454.747 89.6281 454.005 89.5891C453.263 89.5891 452.521 89.5891 451.779 89.5891C450.607 89.5891 449.435 89.6086 448.263 89.6476C447.091 89.7258 446.154 89.7844 445.45 89.8234L444.396 89.9406C443.575 89.9406 443.165 89.55 443.165 88.7687C443.165 87.9094 443.458 87.382 444.044 87.1867C444.279 87.1086 444.806 87.05 445.626 87.0109C446.486 86.9328 447.208 86.7766 447.794 86.5422C448.419 86.2687 448.868 85.8391 449.142 85.2531C449.298 84.8625 449.669 79.257 450.255 68.4367C450.489 63.8273 450.685 60.0383 450.841 57.0695ZM491.739 58.6516C491.739 55.9172 492.755 53.5539 494.786 51.5617C496.818 49.5305 499.376 48.5148 502.462 48.5148C503.907 48.5148 505.197 48.7297 506.329 49.1594C507.501 49.55 508.4 49.9406 509.025 50.3312C509.689 50.7219 510.079 50.9172 510.197 50.9172C510.431 50.9172 510.763 50.5266 511.193 49.7453C511.661 48.925 512.169 48.5148 512.716 48.5148C512.989 48.5148 513.224 48.632 513.419 48.8664C513.614 49.0617 513.712 49.3156 513.712 49.6281C513.712 49.7062 513.693 49.9601 513.654 50.3898C513.614 50.8195 513.556 51.425 513.478 52.2062C513.439 52.9484 513.419 53.7492 513.419 54.6086C513.419 55.468 513.439 56.2687 513.478 57.0109C513.556 57.7531 513.614 58.3391 513.654 58.7687C513.693 59.1594 513.712 59.3937 513.712 59.4719C513.712 60.0578 513.361 60.3508 512.657 60.3508H512.599C512.052 60.3508 511.642 60.1555 511.368 59.7648C511.095 59.3351 510.724 58.632 510.255 57.6555C509.825 56.6789 509.22 55.7414 508.439 54.843C506.447 52.6164 504.259 51.5031 501.876 51.5031C500.236 51.5031 498.849 52.05 497.716 53.1437C496.583 54.2375 496.017 55.5656 496.017 57.1281C496.017 59.2766 497.052 61.093 499.122 62.5773C500.333 63.4758 502.306 64.257 505.04 64.9211C507.775 65.5851 509.591 66.1125 510.489 66.5031C512.755 67.4797 514.572 68.9445 515.939 70.8976C517.345 72.8117 518.048 75.0773 518.048 77.6945C518.048 81.2883 516.779 84.3351 514.239 86.8351C511.7 89.3351 508.595 90.5851 504.923 90.5851C501.329 90.5851 498.282 89.4914 495.782 87.3039C495.157 86.757 494.552 86.4836 493.966 86.4836C493.771 86.4836 493.497 86.5226 493.146 86.6008C492.794 86.6398 492.54 86.6594 492.384 86.6594C491.681 86.6594 491.329 86.3469 491.329 85.7219C491.329 85.6047 491.388 85.2141 491.505 84.55C491.661 83.8859 491.857 82.7922 492.091 81.2687C492.325 79.7453 492.521 77.9875 492.677 75.9953C492.755 75.1359 493.204 74.7062 494.025 74.7062C494.65 74.7062 495.021 74.882 495.138 75.2336C495.294 75.5851 495.47 76.5617 495.665 78.1633C495.704 78.6711 495.743 79.1594 495.782 79.6281C495.822 80.0969 495.841 80.4289 495.841 80.6242C495.88 80.8195 495.9 80.9953 495.9 81.1516C495.9 81.3078 495.939 81.4641 496.017 81.6203C496.095 81.7375 496.154 81.8351 496.193 81.9133C496.232 81.9914 496.368 82.1867 496.603 82.4992C496.837 82.7726 497.052 83.0266 497.247 83.2609C499.239 85.9172 501.818 87.2453 504.982 87.2453C507.364 87.2453 509.415 86.4445 511.134 84.843C512.853 83.2414 513.712 81.2687 513.712 78.925C513.712 76.2297 512.54 74.0226 510.197 72.3039C508.868 71.3273 506.857 70.5266 504.161 69.9016C501.466 69.2375 499.708 68.7297 498.888 68.3781C496.544 67.4406 494.767 66.1125 493.556 64.3937C492.345 62.6359 491.739 60.7219 491.739 58.6516Z" fill="#B29142"/>
</svg>
