<svg width="609" height="144" viewBox="0 0 609 144" fill="none" xmlns="http://www.w3.org/2000/svg">
<path fill-rule="evenodd" clip-rule="evenodd" d="M0 52.6627V95.3373C18.9357 104.916 34.286 120.553 43.5018 139.7L47.8016 144H560.591L566.081 138.511C575.354 119.906 590.458 104.717 609 95.3373V52.6627C588.315 42.1989 571.908 24.5051 563.103 2.90422L560.198 0H48.1984L46.3014 1.89701C37.9476 23.0732 22.32 40.5848 2.49763 51.353C1.67229 51.8013 0.839668 52.238 0 52.6627Z" fill="#3B3C43"/>
<path d="M193.953 67.6074C193.953 65.2441 192.843 63.2747 190.623 61.6992C188.438 60.1237 185.466 59.3359 181.707 59.3359C180.274 59.3359 179.361 59.3896 178.967 59.4971C178.573 59.6045 178.376 59.8372 178.376 60.1953V75.8789C178.376 76.1654 178.466 76.3444 178.645 76.416C178.86 76.4876 179.433 76.5234 180.364 76.5234C184.41 76.5234 187.686 75.6999 190.193 74.0527C192.699 72.4056 193.953 70.2572 193.953 67.6074ZM171.609 57.4561C173.435 57.4561 175.763 57.3665 178.591 57.1875C181.42 56.9727 183.443 56.8652 184.661 56.8652C189.351 56.8652 192.932 57.9753 195.403 60.1953C197.515 62.1289 198.572 64.5101 198.572 67.3389V67.3926C198.536 69.362 197.999 71.1165 196.96 72.6562C195.922 74.1602 194.597 75.3418 192.986 76.2012C190.336 77.7051 186.218 78.457 180.632 78.457H178.967C178.502 78.457 178.269 78.7435 178.269 79.3164V90.4883C178.269 91.1328 178.376 91.6162 178.591 91.9385C178.842 92.2249 179.307 92.3861 179.988 92.4219C183.246 92.5651 184.983 92.6725 185.198 92.7441C185.699 92.8874 185.95 93.2992 185.95 93.9795V94.0332C185.95 94.8926 185.592 95.3223 184.875 95.3223L183.801 95.2148C183.085 95.179 182.118 95.1253 180.901 95.0537C179.683 95.0179 178.484 95 177.302 95C176.085 95 174.867 95.0179 173.65 95.0537C172.432 95.1253 171.466 95.179 170.75 95.2148L169.675 95.3223C168.923 95.3223 168.547 94.8926 168.547 94.0332C168.547 93.89 168.547 93.7646 168.547 93.6572C168.583 93.514 168.601 93.4066 168.601 93.335C168.637 93.2275 168.691 93.138 168.762 93.0664C168.834 92.9948 168.888 92.9411 168.923 92.9053C168.995 92.8337 169.084 92.7799 169.192 92.7441C169.335 92.7083 169.443 92.6904 169.514 92.6904C169.622 92.6546 169.765 92.6367 169.944 92.6367C170.159 92.6009 170.338 92.583 170.481 92.583C170.66 92.5472 170.893 92.5293 171.179 92.5293C171.466 92.4935 171.734 92.4577 171.985 92.4219C172.594 92.3503 172.987 92.207 173.167 91.9922C173.381 91.7415 173.489 91.3835 173.489 90.918V61.4844C173.489 61.1979 173.471 60.9831 173.435 60.8398C173.435 60.6608 173.328 60.4997 173.113 60.3564C172.934 60.1774 172.665 60.0879 172.307 60.0879H170.32C170.069 60.0879 169.872 60.07 169.729 60.0342C169.586 59.9984 169.425 59.873 169.246 59.6582C169.102 59.4076 169.031 59.0674 169.031 58.6377C169.031 57.8499 169.425 57.4561 170.212 57.4561H171.609ZM223.171 66.8018C224.21 66.8018 224.729 67.321 224.729 68.3594V78.5107C224.729 79.5492 224.21 80.0684 223.171 80.0684C222.205 80.0684 221.721 79.6745 221.721 78.8867V75.9326C221.721 75.109 221.238 74.6973 220.271 74.6973H212.698C212.304 74.6973 211.982 74.7152 211.731 74.751C211.48 74.7868 211.194 74.8763 210.872 75.0195C210.585 75.127 210.37 75.3418 210.227 75.6641C210.084 75.9863 210.012 76.3981 210.012 76.8994V89.5215C210.012 89.9154 210.03 90.2376 210.066 90.4883C210.138 90.7031 210.299 90.9359 210.549 91.1865C210.836 91.4014 211.23 91.5446 211.731 91.6162C213.342 91.8669 215.061 91.9922 216.887 91.9922C218.105 91.9922 219.609 91.8848 221.399 91.6699C223.189 91.4551 224.317 91.1686 224.783 90.8105C225.105 90.5599 225.75 89.5752 226.716 87.8564C227.683 86.1019 228.31 85.1351 228.596 84.9561C228.811 84.8486 228.99 84.7949 229.133 84.7949C229.384 84.7949 229.599 84.9023 229.778 85.1172C229.993 85.332 230.1 85.6364 230.1 86.0303V86.084C230.1 86.4062 229.545 89.0202 228.435 93.9258C228.363 94.3555 228.202 94.6419 227.952 94.7852C227.737 94.9284 227.343 95 226.77 95H207.864C206.217 95 204.677 95.1074 203.245 95.3223C201.848 95.5371 201.114 95.6445 201.042 95.6445C200.613 95.6445 200.273 95.4297 200.022 95C199.807 94.6061 199.7 94.2839 199.7 94.0332C199.7 93.6393 199.843 93.3529 200.129 93.1738C200.416 92.9948 201.132 92.6904 202.278 92.2607C202.922 92.0101 203.459 91.8132 203.889 91.6699C204.713 91.3835 205.125 90.6673 205.125 89.5215V60.8398C205.125 60.446 205.035 60.1953 204.856 60.0879C204.677 59.9805 204.265 59.873 203.621 59.7656C203.298 59.7298 202.904 59.694 202.439 59.6582C201.973 59.6224 201.615 59.5866 201.365 59.5508C201.15 59.515 200.917 59.4613 200.667 59.3896C200.416 59.2822 200.237 59.139 200.129 58.96C200.022 58.7809 199.968 58.5303 199.968 58.208C199.968 57.3844 200.326 56.9727 201.042 56.9727H226.34C226.949 56.9727 227.343 57.277 227.522 57.8857C227.665 58.5661 227.862 59.515 228.113 60.7324C228.399 61.9499 228.632 62.9883 228.811 63.8477C229.026 64.6712 229.133 65.1188 229.133 65.1904C229.133 65.7275 228.757 65.9961 228.005 65.9961C227.432 65.9961 226.913 65.6738 226.448 65.0293C224.836 62.2005 223.923 60.6608 223.708 60.4102C223.386 60.0879 222.867 59.9268 222.151 59.9268H211.785C211.069 59.9268 210.603 60.1058 210.388 60.4639C210.209 60.8219 210.12 61.3411 210.12 62.0215V70.293C210.12 71.1165 210.478 71.5283 211.194 71.5283H219.626C220.02 71.5283 220.343 71.5104 220.593 71.4746C220.844 71.403 221.095 71.224 221.345 70.9375C221.596 70.651 221.721 70.2393 221.721 69.7021V67.9834C221.721 67.1956 222.205 66.8018 223.171 66.8018ZM239.177 65.1904V64.9756C239.177 64.4743 238.569 63.6686 237.351 62.5586C235.919 61.1263 234.29 60.3385 232.463 60.1953C231.783 60.1953 231.443 59.7835 231.443 58.96C231.443 58.029 231.855 57.5635 232.678 57.5635H239.446C240.341 57.5635 241.075 57.9036 241.648 58.584L250.242 68.5742L255.291 74.2139C262.022 81.5186 265.531 85.2604 265.818 85.4395C265.889 85.5111 265.961 85.5469 266.033 85.5469C266.283 85.5469 266.409 85.3678 266.409 85.0098C266.409 84.5801 266.427 83.9714 266.462 83.1836C266.498 82.36 266.516 81.626 266.516 80.9814C266.552 80.3011 266.57 79.6745 266.57 79.1016C266.57 74.1602 266.391 68.6995 266.033 62.7197C265.997 61.6455 265.746 60.9652 265.281 60.6787C264.815 60.3923 263.884 60.1774 262.488 60.0342C261.664 59.9268 261.252 59.5329 261.252 58.8525C261.252 58.5303 261.378 58.2438 261.628 57.9932C261.879 57.7067 262.291 57.5635 262.864 57.5635C262.935 57.5635 263.186 57.5814 263.616 57.6172C264.081 57.6172 264.708 57.6351 265.496 57.6709C266.319 57.7067 267.196 57.7246 268.127 57.7246C269.058 57.7246 269.9 57.7067 270.652 57.6709C271.44 57.6351 272.048 57.6172 272.478 57.6172C272.944 57.5814 273.212 57.5635 273.284 57.5635C274.071 57.5635 274.465 57.9753 274.465 58.7988C274.465 59.0853 274.43 59.318 274.358 59.4971C274.286 59.6761 274.143 59.8193 273.928 59.9268C273.713 59.9984 273.534 60.0521 273.391 60.0879C273.284 60.0879 273.051 60.1058 272.693 60.1416C272.335 60.1416 272.084 60.1416 271.941 60.1416C271.01 60.2132 270.365 60.4997 270.007 61.001C269.685 61.5023 269.506 62.487 269.47 63.9551C269.327 70.1855 269.255 74.9479 269.255 78.2422C269.255 80.9635 269.273 83.488 269.309 85.8154C269.345 88.1429 269.381 89.9691 269.417 91.2939C269.452 92.583 269.47 93.3708 269.47 93.6572C269.47 95.4118 269.094 96.2891 268.342 96.2891C267.913 96.2891 267.017 95.5192 265.657 93.9795L254.27 80.9814C246.213 72.0296 242.149 67.5537 242.078 67.5537L241.863 67.7686C241.361 75.2881 241.111 81.805 241.111 87.3193V88.877C241.111 90.3451 241.254 91.2939 241.541 91.7236C241.827 92.1533 242.525 92.404 243.635 92.4756C244.996 92.4756 246.106 92.6009 246.965 92.8516C247.431 93.0664 247.664 93.5498 247.664 94.3018C247.664 94.9821 247.359 95.3223 246.75 95.3223C246.715 95.3223 246.571 95.3044 246.321 95.2686C246.07 95.2686 245.73 95.2507 245.3 95.2148C244.906 95.179 244.441 95.1432 243.904 95.1074C243.367 95.0716 242.758 95.0358 242.078 95C241.397 95 240.717 95 240.037 95C238.962 95 237.888 95.0179 236.814 95.0537C235.74 95.1253 234.88 95.179 234.236 95.2148L233.269 95.3223C232.517 95.3223 232.141 94.9642 232.141 94.248C232.141 93.4603 232.41 92.9769 232.947 92.7979C233.162 92.7262 233.645 92.6725 234.397 92.6367C235.185 92.5651 235.847 92.4219 236.384 92.207C236.957 91.9564 237.369 91.5625 237.62 91.0254C237.763 90.6673 238.103 85.529 238.64 75.6104C238.855 71.3851 239.034 67.9118 239.177 65.1904ZM294.983 75.5566C294.983 80.6055 296.487 84.8665 299.495 88.3398C302.502 91.7773 306.155 93.4961 310.452 93.4961C313.674 93.4961 316.611 92.5114 319.26 90.542C321.946 88.5726 323.79 85.9587 324.792 82.7002C324.972 82.1989 325.24 81.9482 325.598 81.9482C326.207 81.9482 326.511 82.1631 326.511 82.5928C325.688 88.2861 325.222 91.2581 325.115 91.5088C324.936 92.1175 324.524 92.4219 323.879 92.4219H323.826H322.322C321.892 92.4219 321.57 92.4577 321.355 92.5293C321.176 92.6009 320.907 92.762 320.549 93.0127C320.227 93.2633 319.958 93.4424 319.744 93.5498C316.521 95.4118 313.119 96.3428 309.539 96.3428C306.996 96.3428 304.508 95.8415 302.073 94.8389C299.638 93.8363 297.489 92.4398 295.627 90.6494C293.765 88.8232 292.297 86.6748 291.223 84.2041C290.185 81.7334 289.666 79.1911 289.666 76.5771C289.666 73.8916 290.221 71.2956 291.331 68.7891C292.441 66.2826 293.927 64.1341 295.789 62.3438C299.727 58.584 304.4 56.7041 309.807 56.7041H309.861C311.83 56.7041 313.639 56.9548 315.286 57.4561C316.969 57.9215 318.258 58.4049 319.153 58.9062C320.084 59.4076 320.585 59.6582 320.657 59.6582C320.943 59.6582 321.194 59.3538 321.409 58.7451C321.624 58.1364 321.91 57.7783 322.268 57.6709C322.34 57.6709 322.447 57.6709 322.59 57.6709C322.734 57.6351 322.823 57.6172 322.859 57.6172C323.253 57.6172 323.486 57.832 323.557 58.2617L323.933 61.0547C324.184 62.9525 324.434 64.8682 324.685 66.8018C324.936 68.7354 325.061 69.7738 325.061 69.917C325.061 70.5257 324.685 70.8301 323.933 70.8301C323.253 70.8301 322.859 70.7227 322.751 70.5078C322.644 70.2572 322.519 69.5052 322.375 68.252C322.196 66.8913 321.713 65.6917 320.925 64.6533C319.672 63.0778 318.079 61.7887 316.145 60.7861C314.211 59.7477 312.063 59.2285 309.7 59.2285C305.725 59.2285 302.27 60.7324 299.333 63.7402C296.433 66.748 294.983 70.6868 294.983 75.5566ZM334.622 95C334.013 95 333.404 95 332.795 95C332.187 95.0358 331.65 95.0716 331.184 95.1074C330.719 95.1432 330.307 95.179 329.949 95.2148C329.591 95.2507 329.304 95.2686 329.089 95.2686C328.875 95.3044 328.749 95.3223 328.713 95.3223C327.961 95.3223 327.585 94.9463 327.585 94.1943C327.585 94.0153 327.585 93.8721 327.585 93.7646C327.621 93.6214 327.657 93.4961 327.693 93.3887C327.764 93.2812 327.818 93.1917 327.854 93.1201C327.89 93.0485 327.961 92.9948 328.069 92.959C328.212 92.8874 328.302 92.8516 328.337 92.8516C328.373 92.8158 328.481 92.7799 328.66 92.7441C328.875 92.7083 329 92.6904 329.036 92.6904C329.107 92.6546 329.268 92.6188 329.519 92.583C329.806 92.5472 329.985 92.5293 330.056 92.5293C330.916 92.4219 331.56 92.207 331.99 91.8848C332.419 91.5267 332.831 90.8643 333.225 89.8975C335.803 84.1325 338.596 78.2601 341.604 72.2803C346.903 62.2542 349.643 57.1159 349.822 56.8652C349.893 56.7936 350.001 56.7041 350.144 56.5967C350.538 56.3102 350.986 56.167 351.487 56.167C352.454 56.167 353.223 56.8652 353.796 58.2617L361.692 76.5234C365.702 86.2272 367.743 91.1328 367.815 91.2402C368.209 91.8132 368.728 92.1891 369.373 92.3682C370.053 92.5472 370.626 92.6725 371.091 92.7441C371.593 92.8158 371.879 93.0306 371.951 93.3887C372.022 93.6751 372.058 93.9258 372.058 94.1406C372.058 94.9284 371.682 95.3223 370.93 95.3223L370.017 95.2148C369.408 95.179 368.585 95.1253 367.546 95.0537C366.544 95.0179 365.559 95 364.592 95C363.411 95 362.336 95.0179 361.37 95.0537C360.403 95.1253 359.633 95.179 359.06 95.2148C358.523 95.2865 358.201 95.3223 358.093 95.3223C357.341 95.3223 356.965 95.0179 356.965 94.4092C356.965 94.2301 356.965 94.069 356.965 93.9258C357.001 93.7826 357.037 93.6572 357.073 93.5498C357.144 93.4066 357.18 93.2992 357.18 93.2275C357.216 93.1559 357.306 93.0843 357.449 93.0127C357.592 92.9411 357.699 92.9053 357.771 92.9053C357.843 92.8695 357.986 92.8337 358.201 92.7979C358.416 92.762 358.577 92.7441 358.684 92.7441C358.827 92.7083 359.06 92.6725 359.382 92.6367C359.705 92.6009 359.973 92.5651 360.188 92.5293C360.94 92.3861 361.316 92.028 361.316 91.4551C361.316 90.918 360.868 89.2887 359.973 86.5674C359.114 83.8102 358.183 81.3037 357.18 79.0479C357.037 78.6898 356.715 78.5107 356.213 78.5107H343.269C342.696 78.5107 342.284 78.7256 342.034 79.1553C340.78 81.4827 339.653 83.8997 338.65 86.4062C337.683 88.877 337.2 90.4167 337.2 91.0254C337.2 91.6699 337.397 92.0996 337.791 92.3145C338.22 92.4935 338.954 92.6367 339.993 92.7441C340.315 92.7441 340.548 92.762 340.691 92.7979C341.479 92.8695 341.873 93.3171 341.873 94.1406C341.873 94.9284 341.479 95.3223 340.691 95.3223C340.583 95.3223 340.261 95.2865 339.724 95.2148C339.223 95.179 338.507 95.1253 337.576 95.0537C336.681 95.0179 335.696 95 334.622 95ZM355.085 75.6641C355.408 75.6641 355.569 75.5208 355.569 75.2344C355.569 74.9479 354.853 73.1576 353.42 69.8633C352.024 66.569 351.129 64.5817 350.735 63.9014C350.592 63.6507 350.395 63.5254 350.144 63.5254C349.822 63.5254 349.482 63.8477 349.124 64.4922C345.364 71.582 343.484 75.2165 343.484 75.3955C343.484 75.5745 343.591 75.6641 343.806 75.6641H355.085ZM396.335 67.7148C396.335 65.459 395.404 63.5075 393.542 61.8604C391.681 60.1774 389.389 59.3359 386.667 59.3359C384.985 59.3359 383.892 59.5329 383.391 59.9268C383.176 60.07 383.069 60.3564 383.069 60.7861C383.069 60.8219 383.069 60.8398 383.069 60.8398L383.123 60.9473V73.8916C383.123 74.3571 383.302 74.6436 383.66 74.751C384.018 74.8226 385.038 74.8584 386.721 74.8584C388.798 74.8584 390.499 74.6077 391.824 74.1064C393.077 73.6051 394.133 72.7995 394.993 71.6895C395.888 70.5794 396.335 69.2546 396.335 67.7148ZM387.795 57.2412C390.123 57.2412 392.164 57.5635 393.918 58.208C395.673 58.8167 396.998 59.6224 397.893 60.625C398.824 61.5918 399.504 62.5944 399.934 63.6328C400.364 64.6712 400.579 65.7275 400.579 66.8018C400.579 69.165 399.845 71.1702 398.376 72.8174C396.908 74.4645 395.566 75.5029 394.348 75.9326C394.169 76.04 394.08 76.1296 394.08 76.2012C394.08 76.2728 394.115 76.3444 394.187 76.416C396.156 78.7077 397.821 80.8561 399.182 82.8613C400.579 84.8307 401.653 86.46 402.405 87.749C403.193 89.0381 403.837 89.9691 404.338 90.542C405.377 91.7236 406.361 92.3145 407.292 92.3145C407.83 92.3145 408.313 92.1175 408.743 91.7236C409.172 91.2939 409.477 91.0791 409.656 91.0791C410.05 91.0791 410.247 91.2939 410.247 91.7236C410.247 92.3324 409.781 93.1559 408.85 94.1943C407.955 95.1969 406.809 95.6982 405.413 95.6982C403.551 95.6982 401.617 94.3734 399.612 91.7236L394.133 83.8818C391.018 79.5133 389.317 77.2396 389.031 77.0605C388.852 76.9173 388.547 76.8457 388.118 76.8457H384.089C383.588 76.8457 383.337 77.1143 383.337 77.6514V90.3809V90.542C383.337 91.6162 383.803 92.207 384.734 92.3145C385.056 92.3503 385.432 92.3861 385.862 92.4219C386.292 92.4577 386.614 92.4935 386.829 92.5293C387.079 92.5293 387.348 92.5472 387.634 92.583C387.957 92.583 388.189 92.6009 388.333 92.6367C388.512 92.6725 388.691 92.7262 388.87 92.7979C389.084 92.8337 389.228 92.8874 389.299 92.959C389.407 93.0306 389.496 93.138 389.568 93.2812C389.639 93.3887 389.693 93.514 389.729 93.6572C389.765 93.8005 389.783 93.9616 389.783 94.1406C389.783 94.9284 389.407 95.3223 388.655 95.3223C388.619 95.3223 388.458 95.3044 388.171 95.2686C387.921 95.2686 387.581 95.2507 387.151 95.2148C386.721 95.179 386.22 95.1432 385.647 95.1074C385.11 95.0716 384.465 95.0358 383.713 95C382.997 95 382.281 95 381.565 95C380.849 95 380.115 95 379.363 95C378.647 95.0358 378.02 95.0716 377.483 95.1074C376.946 95.1432 376.444 95.179 375.979 95.2148C375.549 95.2507 375.209 95.2686 374.958 95.2686C374.708 95.3044 374.565 95.3223 374.529 95.3223C373.884 95.3223 373.562 94.821 373.562 93.8184C373.562 93.6751 373.562 93.5498 373.562 93.4424C373.598 93.335 373.634 93.2454 373.669 93.1738C373.741 93.1022 373.795 93.0485 373.831 93.0127C373.902 92.9411 373.992 92.8874 374.099 92.8516C374.242 92.8158 374.368 92.7799 374.475 92.7441C374.583 92.7083 374.744 92.6904 374.958 92.6904C375.173 92.6546 375.352 92.6367 375.496 92.6367C375.639 92.6367 375.854 92.6367 376.14 92.6367C376.462 92.6009 376.731 92.5651 376.946 92.5293C377.555 92.4577 377.948 92.2786 378.127 91.9922C378.342 91.6699 378.45 91.2044 378.45 90.5957V62.1826C378.45 61.359 378.217 60.8577 377.751 60.6787C377.286 60.4639 375.979 60.1774 373.831 59.8193C373.258 59.7119 372.971 59.4076 372.971 58.9062C372.971 58.2259 373.222 57.8857 373.723 57.8857H375.603C377.322 57.8857 379.506 57.7783 382.156 57.5635C384.806 57.3486 386.685 57.2412 387.795 57.2412ZM434.417 66.8018C435.455 66.8018 435.974 67.321 435.974 68.3594V78.5107C435.974 79.5492 435.455 80.0684 434.417 80.0684C433.45 80.0684 432.966 79.6745 432.966 78.8867V75.9326C432.966 75.109 432.483 74.6973 431.516 74.6973H423.943C423.549 74.6973 423.227 74.7152 422.976 74.751C422.725 74.7868 422.439 74.8763 422.117 75.0195C421.83 75.127 421.615 75.3418 421.472 75.6641C421.329 75.9863 421.257 76.3981 421.257 76.8994V89.5215C421.257 89.9154 421.275 90.2376 421.311 90.4883C421.383 90.7031 421.544 90.9359 421.794 91.1865C422.081 91.4014 422.475 91.5446 422.976 91.6162C424.587 91.8669 426.306 91.9922 428.132 91.9922C429.35 91.9922 430.854 91.8848 432.644 91.6699C434.434 91.4551 435.562 91.1686 436.028 90.8105C436.35 90.5599 436.995 89.5752 437.961 87.8564C438.928 86.1019 439.555 85.1351 439.841 84.9561C440.056 84.8486 440.235 84.7949 440.378 84.7949C440.629 84.7949 440.844 84.9023 441.023 85.1172C441.238 85.332 441.345 85.6364 441.345 86.0303V86.084C441.345 86.4062 440.79 89.0202 439.68 93.9258C439.609 94.3555 439.447 94.6419 439.197 94.7852C438.982 94.9284 438.588 95 438.015 95H419.109C417.462 95 415.922 95.1074 414.49 95.3223C413.093 95.5371 412.359 95.6445 412.288 95.6445C411.858 95.6445 411.518 95.4297 411.267 95C411.052 94.6061 410.945 94.2839 410.945 94.0332C410.945 93.6393 411.088 93.3529 411.375 93.1738C411.661 92.9948 412.377 92.6904 413.523 92.2607C414.167 92.0101 414.705 91.8132 415.134 91.6699C415.958 91.3835 416.37 90.6673 416.37 89.5215V60.8398C416.37 60.446 416.28 60.1953 416.101 60.0879C415.922 59.9805 415.51 59.873 414.866 59.7656C414.543 59.7298 414.15 59.694 413.684 59.6582C413.219 59.6224 412.861 59.5866 412.61 59.5508C412.395 59.515 412.162 59.4613 411.912 59.3896C411.661 59.2822 411.482 59.139 411.375 58.96C411.267 58.7809 411.213 58.5303 411.213 58.208C411.213 57.3844 411.571 56.9727 412.288 56.9727H437.585C438.194 56.9727 438.588 57.277 438.767 57.8857C438.91 58.5661 439.107 59.515 439.358 60.7324C439.644 61.9499 439.877 62.9883 440.056 63.8477C440.271 64.6712 440.378 65.1188 440.378 65.1904C440.378 65.7275 440.002 65.9961 439.25 65.9961C438.678 65.9961 438.158 65.6738 437.693 65.0293C436.082 62.2005 435.168 60.6608 434.954 60.4102C434.631 60.0879 434.112 59.9268 433.396 59.9268H423.03C422.314 59.9268 421.848 60.1058 421.633 60.4639C421.454 60.8219 421.365 61.3411 421.365 62.0215V70.293C421.365 71.1165 421.723 71.5283 422.439 71.5283H430.872C431.265 71.5283 431.588 71.5104 431.838 71.4746C432.089 71.403 432.34 71.224 432.59 70.9375C432.841 70.651 432.966 70.2393 432.966 69.7021V67.9834C432.966 67.1956 433.45 66.8018 434.417 66.8018Z" fill="#B29142"/>
</svg>
